<svg width="941" height="64" viewBox="0 0 941 64" fill="none" xmlns="http://www.w3.org/2000/svg">
<path d="M147 48.5188L147.194 49.4997L147 48.5188ZM941 48.5188L929.522 47.2626L934.173 57.8314L941 48.5188ZM0.256706 19.1877C0.892752 19.8944 1.58886 20.6214 2.34439 21.3646L3.74691 19.9388C3.01823 19.222 2.35035 18.5243 1.74329 17.8498L0.256706 19.1877ZM6.84957 25.3902C8.31126 26.5873 9.9098 27.8071 11.6438 29.0353L12.7998 27.4032C11.1022 26.2008 9.5409 25.0092 8.1168 23.8429L6.84957 25.3902ZM16.6507 32.3591C18.2881 33.3794 20.0181 34.3968 21.8399 35.4032L22.807 33.6526C21.0154 32.6629 19.3157 31.6632 17.7083 30.6617L16.6507 32.3591ZM27.1531 38.1723C28.8992 39.0304 30.7154 39.8743 32.6013 40.6985L33.4021 38.8658C31.5435 38.0536 29.7544 37.2223 28.0353 36.3774L27.1531 38.1723ZM38.1345 42.9774C39.9575 43.684 41.8372 44.3702 43.7732 45.032L44.4201 43.1395C42.5096 42.4865 40.6552 41.8094 38.8573 41.1126L38.1345 42.9774ZM49.4825 46.8604C51.3555 47.4208 53.2754 47.9573 55.2422 48.467L55.7439 46.5309C53.8011 46.0275 51.905 45.4976 50.0558 44.9443L49.4825 46.8604ZM61.0622 49.8634C62.9779 50.287 64.934 50.6846 66.9302 51.0538L67.2939 49.0871C65.3204 48.7222 63.3871 48.3292 61.494 47.9106L61.0622 49.8634ZM72.8359 52.0426C74.7789 52.3346 76.757 52.5993 78.77 52.8348L79.0024 50.8484C77.0111 50.6154 75.0546 50.3535 73.1331 50.0648L72.8359 52.0426ZM84.7246 53.4355C86.6832 53.6019 88.6727 53.7406 90.6927 53.8499L90.8007 51.8528C88.8011 51.7447 86.8321 51.6074 84.8939 51.4427L84.7246 53.4355ZM96.6685 54.0834C98.6341 54.131 100.627 54.1507 102.647 54.1412L102.638 52.1412C100.637 52.1507 98.6632 52.1311 96.7169 52.0839L96.6685 54.0834ZM108.624 54.0288C110.59 53.9643 112.581 53.8722 114.596 53.7512L114.476 51.7548C112.479 51.8747 110.507 51.966 108.558 52.0298L108.624 54.0288ZM120.561 53.3135C122.524 53.1435 124.509 52.9461 126.516 52.7204L126.292 50.733C124.302 50.9568 122.334 51.1524 120.388 51.3209L120.561 53.3135ZM132.461 51.9765C134.407 51.7086 136.373 51.4141 138.357 51.0921L138.037 49.1179C136.068 49.4373 134.118 49.7294 132.188 49.9952L132.461 51.9765ZM144.234 50.0684C145.216 49.8855 146.203 49.696 147.194 49.4997L146.806 47.5378C145.822 47.7326 144.843 47.9207 143.868 48.1021L144.234 50.0684ZM147.194 49.4997C148.223 49.296 149.243 49.0898 150.256 48.8812L149.852 46.9223C148.845 47.1299 147.829 47.3351 146.806 47.5378L147.194 49.4997ZM156.239 47.6008C158.284 47.1466 160.297 46.6827 162.277 46.21L161.813 44.2647C159.843 44.735 157.84 45.1965 155.805 45.6484L156.239 47.6008ZM168.254 44.7336C170.261 44.2207 172.235 43.6992 174.177 43.17L173.652 41.2403C171.72 41.7668 169.756 42.2856 167.759 42.7959L168.254 44.7336ZM180.124 41.4984C182.13 40.9174 184.1 40.3291 186.037 39.7345L185.45 37.8226C183.523 38.4141 181.563 38.9994 179.568 39.5774L180.124 41.4984ZM191.903 37.8839C193.88 37.2436 195.822 36.5978 197.731 35.9481L197.086 34.0548C195.187 34.7014 193.254 35.3441 191.287 35.9812L191.903 37.8839ZM203.536 33.9259C205.503 33.2252 207.435 32.5219 209.334 31.8177L208.638 29.9425C206.747 30.6439 204.823 31.3443 202.865 32.0418L203.536 33.9259ZM215.096 29.6419C217.041 28.8953 218.951 28.1499 220.83 27.4078L220.095 25.5476C218.221 26.2877 216.317 27.0308 214.379 27.7748L215.096 29.6419ZM226.54 25.1273C228.468 24.3496 230.365 23.5782 232.233 22.8157L231.478 20.964C229.611 21.7258 227.717 22.4962 225.792 23.2724L226.54 25.1273ZM237.918 20.4916C239.839 19.7062 241.732 18.934 243.602 18.1777L242.852 16.3236C240.979 17.0813 239.083 17.8547 237.161 18.6403L237.918 20.4916ZM249.295 15.9006C251.22 15.1417 253.122 14.4041 255.008 13.6916L254.301 11.8207C252.405 12.5373 250.493 13.2783 248.561 14.0401L249.295 15.9006ZM260.752 11.5859C262.692 10.8989 264.618 10.2432 266.538 9.6227L265.923 7.71966C263.984 8.3465 262.039 9.00825 260.084 9.70066L260.752 11.5859ZM272.375 7.84387C274.342 7.28329 276.306 6.76434 278.276 6.29134L277.809 4.34665C275.81 4.82668 273.818 5.35285 271.827 5.9205L272.375 7.84387ZM284.231 5.00931C286.22 4.6322 288.22 4.30554 290.237 4.03371L289.97 2.05163C287.916 2.32842 285.881 2.66086 283.858 3.04432L284.231 5.00931ZM296.284 3.39178C298.285 3.23715 300.308 3.13844 302.359 3.09972L302.322 1.10007C300.231 1.13954 298.169 1.24015 296.13 1.39773L296.284 3.39178ZM308.444 3.16134C310.437 3.23887 312.461 3.37342 314.519 3.56847L314.708 1.57739C312.613 1.37887 310.552 1.24184 308.522 1.16285L308.444 3.16134ZM320.566 4.30298C322.531 4.5933 324.53 4.93799 326.567 5.33984L326.954 3.37766C324.887 2.96974 322.856 2.61956 320.858 2.32445L320.566 4.30298ZM332.514 6.65079C334.441 7.11922 336.402 7.63742 338.401 8.20751L338.95 6.28421C336.927 5.70714 334.94 5.18221 332.986 4.70739L332.514 6.65079ZM344.231 9.98412C345.204 10.2991 346.186 10.626 347.176 10.9649L347.824 9.0726C346.823 8.73014 345.831 8.3998 344.847 8.08137L344.231 9.98412ZM347.176 10.9649C348.156 11.3 349.131 11.6381 350.102 11.9789L350.764 10.0918C349.789 9.74929 348.808 9.40948 347.824 9.0726L347.176 10.9649ZM355.898 14.0647C357.837 14.7789 359.758 15.503 361.662 16.2354L362.38 14.3688C360.468 13.6331 358.538 12.9056 356.59 12.188L355.898 14.0647ZM367.402 18.487C369.324 19.2556 371.23 20.0314 373.12 20.8128L373.884 18.9645C371.988 18.1804 370.075 17.4016 368.144 16.6299L367.402 18.487ZM378.811 23.2016C380.716 24.0127 382.605 24.8279 384.478 25.6453L385.278 23.8121C383.4 22.9926 381.505 22.1751 379.594 21.3615L378.811 23.2016ZM390.126 28.1346C392.019 28.9766 393.896 29.8191 395.759 30.6601L396.582 28.8372C394.716 27.995 392.836 27.151 390.939 26.3073L390.126 28.1346ZM401.383 33.211C403.269 34.0704 405.142 34.9261 407.002 35.7762L407.833 33.9572C405.973 33.1072 404.1 32.251 402.212 31.391L401.383 33.211ZM412.622 38.3431C414.511 39.204 416.387 40.0565 418.251 40.8984L419.074 39.0756C417.213 38.235 415.339 37.3835 413.452 36.5233L412.622 38.3431ZM423.896 43.4271C425.795 44.2703 427.684 45.0998 429.563 45.9129L430.357 44.0774C428.485 43.2671 426.602 42.4402 424.707 41.5991L423.896 43.4271ZM435.261 48.3376C437.182 49.1398 439.093 49.9219 440.997 50.6811L441.738 48.8233C439.845 48.0686 437.944 47.2906 436.032 46.4921L435.261 48.3376ZM446.779 52.921C448.73 53.6534 450.674 54.3583 452.614 55.0326L453.271 53.1435C451.348 52.475 449.419 51.7757 447.482 51.0486L446.779 52.921ZM458.507 56.9886C460.495 57.6158 462.48 58.2072 464.462 58.7595L464.999 56.8329C463.039 56.287 461.077 55.7021 459.108 55.0813L458.507 56.9886ZM470.482 60.3136C472.51 60.7942 474.537 61.2302 476.565 61.6179L476.941 59.6535C474.942 59.2716 472.944 58.8418 470.944 58.3675L470.482 60.3136ZM482.707 62.6393C484.766 62.9295 486.829 63.1663 488.897 63.3459L489.07 61.3534C487.039 61.177 485.012 60.9443 482.986 60.6588L482.707 62.6393ZM495.123 63.7093C497.194 63.7703 499.272 63.7707 501.359 63.7067L501.298 61.7077C499.252 61.7704 497.214 61.77 495.181 61.7102L495.123 63.7093ZM507.584 63.3238C509.637 63.1335 511.7 62.8785 513.773 62.5553L513.465 60.5792C511.433 60.8959 509.412 61.1458 507.399 61.3323L507.584 63.3238ZM519.903 61.4054C521.907 60.9656 523.922 60.4605 525.95 59.8872L525.406 57.9626C523.416 58.5253 521.439 59.0207 519.474 59.4519L519.903 61.4054ZM531.896 58.0206C532.878 57.6817 533.863 57.3265 534.852 56.9548L534.148 55.0827C533.176 55.4481 532.208 55.7971 531.244 56.13L531.896 58.0206ZM534.852 56.9548C535.798 56.599 536.747 56.2367 537.699 55.8683L536.978 54.0031C536.031 54.3693 535.088 54.7294 534.148 55.0827L534.852 56.9548ZM543.394 53.6078C545.27 52.846 547.156 52.0637 549.052 51.2636L548.275 49.4209C546.386 50.2178 544.508 50.9968 542.642 51.7549L543.394 53.6078ZM554.68 48.8532C556.539 48.0461 558.407 47.2248 560.283 46.3921L559.472 44.564C557.6 45.3949 555.736 46.214 553.883 47.0187L554.68 48.8532ZM565.869 43.8941C567.718 43.0611 569.576 42.2196 571.441 41.3719L570.613 39.5512C568.75 40.3982 566.894 41.2387 565.047 42.0706L565.869 43.8941ZM576.999 38.8401C578.844 37.9981 580.696 37.1527 582.555 36.3058L581.726 34.4858C579.867 35.333 578.014 36.1788 576.169 37.0205L576.999 38.8401ZM588.115 33.7793C589.965 32.9415 591.821 32.1046 593.682 31.2707L592.864 29.4455C591 30.2807 589.142 31.1187 587.29 31.9574L588.115 33.7793ZM599.26 28.7901C601.12 27.9699 602.984 27.1549 604.853 26.3473L604.06 24.5114C602.186 25.3212 600.317 26.1382 598.453 26.9602L599.26 28.7901ZM610.464 23.9525C612.338 23.1633 614.215 22.3837 616.097 21.6156L615.341 19.764C613.452 20.535 611.568 21.3175 609.688 22.1093L610.464 23.9525ZM621.756 19.3466C623.649 18.602 625.546 17.8713 627.445 17.1564L626.74 15.2846C624.831 16.0031 622.926 16.7375 621.024 17.4854L621.756 19.3466ZM633.165 15.0568C635.081 14.3721 636.999 13.7057 638.919 13.0598L638.282 11.1642C636.349 11.8143 634.419 12.4848 632.492 13.1734L633.165 15.0568ZM644.709 11.1786C646.65 10.5708 648.593 9.98612 650.536 9.42676L649.983 7.50477C648.024 8.06863 646.067 8.6578 644.112 9.27L644.709 11.1786ZM656.401 7.81872C658.37 7.30648 660.34 6.82248 662.309 6.36901L661.861 4.41999C659.872 4.87787 657.884 5.36638 655.898 5.88316L656.401 7.81872ZM668.254 5.09555C670.248 4.70119 672.241 4.34047 674.234 4.01576L673.912 2.0418C671.897 2.37026 669.881 2.73501 667.866 3.13357L668.254 5.09555ZM680.244 3.14777C682.257 2.89516 684.269 2.68181 686.279 2.51017L686.109 0.517424C684.072 0.691392 682.033 0.907551 679.995 1.16334L680.244 3.14777ZM692.332 2.12167C694.354 2.03561 696.375 1.99443 698.393 2.0006L698.399 0.000614345C696.35 -0.00566006 694.299 0.03617 692.247 0.123478L692.332 2.12167ZM704.45 2.16434C706.466 2.26815 708.48 2.42204 710.49 2.62852L710.694 0.638993C708.65 0.428959 706.602 0.272502 704.553 0.166985L704.45 2.16434ZM716.497 3.40632C718.485 3.71792 720.469 4.08381 722.448 4.50648L722.866 2.55056C720.85 2.12013 718.83 1.74762 716.807 1.43046L716.497 3.40632ZM728.327 5.93418C730.26 6.46164 732.189 7.04612 734.114 7.68999L734.748 5.79333C732.788 5.1374 730.823 4.54199 728.853 4.00469L728.327 5.93418ZM739.792 9.77003C740.731 10.1441 741.668 10.5329 742.604 10.9369L743.396 9.10064C742.443 8.68922 741.489 8.29317 740.533 7.91219L739.792 9.77003ZM742.604 10.9369C743.543 11.3425 744.482 11.7496 745.419 12.1582L746.218 10.3248C745.279 9.91535 744.338 9.50723 743.396 9.10064L742.604 10.9369ZM751.034 14.6272C752.906 15.457 754.773 16.2909 756.636 17.1272L757.455 15.3027C755.589 14.4652 753.719 13.6301 751.844 12.7988L751.034 14.6272ZM762.228 19.65C764.095 20.4958 765.958 21.3425 767.817 22.1886L768.646 20.3683C766.786 19.5219 764.922 18.6746 763.053 17.8282L762.228 19.65ZM773.406 24.7345C775.273 25.5854 777.136 26.434 778.996 27.2788L779.823 25.4579C777.965 24.6136 776.102 23.7653 774.235 22.9145L773.406 24.7345ZM784.593 29.8127C786.465 30.657 788.334 31.4958 790.199 32.3273L791.014 30.5006C789.151 29.6704 787.285 28.8329 785.415 27.9895L784.593 29.8127ZM795.82 34.8132C797.703 35.6387 799.582 36.4551 801.459 37.2606L802.247 35.4227C800.376 34.6195 798.502 33.8052 796.623 32.9816L795.82 34.8132ZM807.12 39.6591C809.018 40.4523 810.914 41.2325 812.808 41.9979L813.557 40.1436C811.671 39.3814 809.783 38.6042 807.891 37.8137L807.12 39.6591ZM818.526 44.2651C820.447 45.0112 822.365 45.74 824.282 46.4496L824.976 44.574C823.07 43.8683 821.162 43.1433 819.25 42.4008L818.526 44.2651ZM830.077 48.5367C832.024 49.2176 833.97 49.8766 835.914 50.5117L836.535 48.6106C834.605 47.98 832.672 47.3254 830.737 46.6488L830.077 48.5367ZM841.794 52.3592C843.77 52.9545 845.746 53.523 847.72 54.0624L848.247 52.1331C846.29 51.5985 844.332 51.0348 842.371 50.4442L841.794 52.3592ZM853.693 55.6038C855.7 56.0906 857.706 56.545 859.712 56.9648L860.122 55.0073C858.137 54.592 856.152 54.1422 854.164 53.6602L853.693 55.6038ZM865.776 58.1261C867.81 58.4789 869.845 58.7936 871.88 59.0679L872.147 57.0858C870.138 56.815 868.128 56.5041 866.117 56.1555L865.776 58.1261ZM878.019 59.7704C880.074 59.9628 882.129 60.1116 884.185 60.2143L884.285 58.2168C882.259 58.1156 880.233 57.9689 878.206 57.7791L878.019 59.7704ZM890.367 60.382C892.428 60.39 894.49 60.3494 896.553 60.2576L896.464 58.2596C894.434 58.3499 892.404 58.3899 890.375 58.382L890.367 60.382ZM902.726 59.8287C904.773 59.6345 906.821 59.3879 908.871 59.0863L908.58 57.1076C906.564 57.4041 904.55 57.6467 902.537 57.8376L902.726 59.8287ZM914.969 58.0263C916.979 57.6226 918.99 57.1642 921.003 56.6489L920.507 54.7113C918.528 55.218 916.551 55.6686 914.575 56.0654L914.969 58.0263ZM926.957 54.9593C928.907 54.3509 930.859 53.6874 932.814 52.9668L932.122 51.0902C930.199 51.7992 928.279 52.4518 926.361 53.05L926.957 54.9593Z" fill="#3C50E0" fill-opacity="0.2"/>
</svg>
