<svg id="Layer_1" data-name="Layer 1" xmlns="http://www.w3.org/2000/svg" viewBox="0 0 193 39"><defs><style>.cls-1{fill:#7b86a3;}</style></defs><title>Analytify</title><path class="cls-1" d="M63.71,9.45A1.89,1.89,0,0,0,62,11.2v1.17a20,20,0,0,0-3.06-2.19,7.53,7.53,0,0,0-3.66-.73,8.7,8.7,0,0,0-3.94.73,10.13,10.13,0,0,0-3.22,2.34,8,8,0,0,0-2,3.21,9,9,0,0,0-.73,3.95A9.44,9.44,0,0,0,48.22,27a10.25,10.25,0,0,0,7.3,2.93,6.42,6.42,0,0,0,3.37-.73,18.34,18.34,0,0,0,2.92-2.05v.73a1.76,1.76,0,1,0,3.51,0V11.2C65.61,10.18,64.73,9.45,63.71,9.45ZM60.35,24.5a6.07,6.07,0,0,1-4.53,1.9A6.5,6.5,0,0,1,51,24.5a6.85,6.85,0,0,1-1.9-5A6.74,6.74,0,0,1,51,14.71a6.7,6.7,0,0,1,9.5.15,6.88,6.88,0,0,1-.14,9.64ZM78.61,9.6a6.38,6.38,0,0,0-3.07.58,11.76,11.76,0,0,0-2.63,1.9V11.2a1.75,1.75,0,0,0-3.5,0V27.86a1.75,1.75,0,1,0,3.5,0V20.7a11.47,11.47,0,0,1,1.32-5.84,4.62,4.62,0,0,1,3.94-1.76,5.71,5.71,0,0,1,4,1.46,7.61,7.61,0,0,1,1.46,4.53v8.77a1.76,1.76,0,1,0,3.51,0v-9.5a8.87,8.87,0,0,0-2.34-6.43A8.61,8.61,0,0,0,78.61,9.6ZM109,9.45a1.89,1.89,0,0,0-1.76,1.75v1.17a20.54,20.54,0,0,0-3.06-2.19,7.87,7.87,0,0,0-3.66-.73,8.7,8.7,0,0,0-3.94.73,10.13,10.13,0,0,0-3.22,2.34,7.94,7.94,0,0,0-2,3.21,9,9,0,0,0-.73,3.95A9.44,9.44,0,0,0,93.52,27a10,10,0,0,0,7.3,2.93,7.27,7.27,0,0,0,3.51-.73,17.9,17.9,0,0,0,2.92-2.05v.73a1.76,1.76,0,1,0,3.51,0V11.2A1.69,1.69,0,0,0,109,9.45ZM105.5,24.5A6.06,6.06,0,0,1,101,26.4a6.46,6.46,0,0,1-4.82-1.9,6.81,6.81,0,0,1-1.9-5,6.7,6.7,0,0,1,1.9-4.82,6.46,6.46,0,0,1,4.82-1.9,6.55,6.55,0,0,1,4.68,2,6.73,6.73,0,0,1,1.9,4.82A6.6,6.6,0,0,1,105.5,24.5ZM117.19,3.6a1.88,1.88,0,0,0-1.75,1.76v22.5a1.75,1.75,0,1,0,3.5,0V5.36A1.62,1.62,0,0,0,117.19,3.6Zm20.17,5.85a1.71,1.71,0,0,0-1.61,1.17l-5.12,13.44-5-13.44a1.59,1.59,0,0,0-1.61-1.17,1.7,1.7,0,0,0-1.61,2.34l6.28,16.66L127,33a1.68,1.68,0,0,0,1.46,2.48h0a1.8,1.8,0,0,0,1.61-1l9.06-22.51A1.85,1.85,0,0,0,137.36,9.45Zm13,0h-1.75V5.36a1.76,1.76,0,1,0-3.51,0V9.45h-1.75a1.89,1.89,0,0,0-1.76,1.75A1.89,1.89,0,0,0,143.35,13h1.75V27.72a1.76,1.76,0,0,0,3.51,0V13.1h1.75a1.88,1.88,0,0,0,1.76-1.75A1.74,1.74,0,0,0,150.36,9.45Zm7-5.85a1.89,1.89,0,0,0-1.76,1.76,1.76,1.76,0,0,0,3.51,0A1.69,1.69,0,0,0,157.38,3.6Zm0,5.85a1.89,1.89,0,0,0-1.76,1.75V27.86a1.76,1.76,0,1,0,3.51,0V11.2A1.69,1.69,0,0,0,157.38,9.45Zm14.17,0h-2.92a2.52,2.52,0,0,1,.73-1.9,4,4,0,0,1,1.17-.73,1.75,1.75,0,0,0,1.31-2.19,1.79,1.79,0,0,0-1.9-1.17,4.94,4.94,0,0,0-3.07,1.31A5.75,5.75,0,0,0,165,9.3v.15h-1.75a1.88,1.88,0,0,0-1.75,1.75A1.88,1.88,0,0,0,163.22,13H165V27.72a1.76,1.76,0,0,0,3.51,0V13.1h3.07a1.87,1.87,0,0,0,1.75-1.75A1.73,1.73,0,0,0,171.55,9.45Zm19.73,0h0a1.71,1.71,0,0,0-1.61,1.17l-5.26,13.44-5-13.44a1.58,1.58,0,0,0-1.61-1.17h-.14a1.7,1.7,0,0,0-1.61,2.34l6.28,16.66L180.61,33a1.72,1.72,0,0,0,1.61,2.33,1.8,1.8,0,0,0,1.61-1l9.06-22.5A1.77,1.77,0,0,0,191.28,9.45Z"/><path class="cls-1" d="M16.8,2.7h0A16.8,16.8,0,0,0,0,19.5H0A16.8,16.8,0,0,0,16.8,36.3h0A16.8,16.8,0,0,0,33.6,19.5h0A16.8,16.8,0,0,0,16.8,2.7ZM30.24,19.5A13.44,13.44,0,0,1,16.8,32.94h0A13.44,13.44,0,0,1,3.36,19.5h0A13.44,13.44,0,0,1,16.8,6.06h0A13.44,13.44,0,0,1,30.24,19.5Z"/><rect class="cls-1" x="21" y="12.78" width="2.94" height="15.54" rx="1.47"/><rect class="cls-1" x="15.12" y="16.14" width="2.94" height="12.18" rx="1.47"/><rect class="cls-1" x="9.24" y="19.5" width="2.94" height="8.82" rx="1.47"/><rect class="cls-1" x="30.24" y="7.74" width="3.36" height="25.2" rx="1.68"/></svg>