<svg id="Layer_1" data-name="Layer 1" xmlns="http://www.w3.org/2000/svg" viewBox="0 0 193 39"><defs><style>.cls-1{fill:#7b86a3;}</style></defs><title>AppSumo</title><path class="cls-1" d="M121.85,22.85c0,5-2.32,5-3.48,5s-3.47,0-3.47-5V8.69H109V23.75c0,5.79,3.86,9.9,9.39,9.9s9.4-4.11,9.4-9.9V8.69h-5.92V22.85Zm58-14.93A13.13,13.13,0,1,0,193,21,13.1,13.1,0,0,0,179.88,7.92Zm0,20.2a7.09,7.09,0,0,1-7.08-7.2A7.08,7.08,0,1,1,187,20.66v.13A7.19,7.19,0,0,1,179.88,28.12ZM13.25,4.57,0,33.4H6.69l2.57-5.54h8l2.57,5.54h6.7ZM10.68,23l2.44-6,2.45,6ZM41.82,8.82H32.17V33.14h6V26.19h3.22c5.92,0,9.65-3.34,9.65-8.75v-.13C51.21,12,47.61,8.82,41.82,8.82ZM45,17.7C45,19.76,43.62,21,41.3,21H38.21V14.35H41.3C43.75,14.22,45,15.51,45,17.7ZM66.78,8.82H57.13V33.14h6V26.19h3.21c5.92,0,9.65-3.34,9.65-8.75v-.13C76.17,12,72.57,8.82,66.78,8.82ZM70,17.7C70,19.76,68.58,21,66.26,21H63.18V14.35h3.08C68.71,14.22,70,15.51,70,17.7Zm24.07-1.16c-4.77-1.29-5.79-1.8-5.79-3.47v-.13c0-1.29,1.28-2.19,3.34-2.19a12.11,12.11,0,0,1,7.08,2.7l.13.13,3.34-4.89L102,8.56A17.1,17.1,0,0,0,91.61,5c-5.79,0-9.91,3.47-9.91,8.49v.13c0,5.79,4,7.34,9.4,8.62,4.63,1.16,5.4,1.93,5.4,3.35v.13c0,1.54-1.42,2.44-3.73,2.44a12.78,12.78,0,0,1-8.11-3.34l-.13-.13-3.86,4.63.13.13a17.44,17.44,0,0,0,11.84,4.5c6.43,0,10.42-3.34,10.42-8.75V25C103.06,19.89,99.46,17.83,94.06,16.54Zm53.65,17.89-7.33-12.36-2.19,11.45h-5.28l5.41-25.6L147.84,24l9-16.08,5.41,25.6h-5.66L154.53,22.2Z"/></svg>