<svg id="Layer_1" data-name="Layer 1" xmlns="http://www.w3.org/2000/svg" viewBox="0 0 136.85 37.95"><defs><style>.cls-1{fill:#7b86a3;}.cls-2{fill:#fff;}.cls-3{fill:#737e91;}.cls-4{fill:#7a8391;}</style></defs><title>ShamrockFSW</title><path class="cls-1" d="M8.23,30.82a1.84,1.84,0,0,0-1.88-1.1c-.94,0-1.88.47-1.88,1.57,0,2.58,4.23,1.41,4.23,4.23a2.29,2.29,0,0,1-2.59,2.35,10.34,10.34,0,0,1-2.19-.32L3.84,36.3h.23a2,2,0,0,0,2,1.18c.94,0,1.72-.47,1.72-1.49,0-2.51-4.23-1.18-4.23-4.23,0-1.73,1.34-2.43,2.9-2.43.63,0,1.18.16,1.8.16l.08,1.33Z"/><path class="cls-1" d="M11.2,37.24c0,.24.24.31.55.39v.16c-.31,0-.63-.08-.94-.08s-.63.08-.94.08v-.16c.24-.08.55-.15.55-.39V33.32c0-1.48-.08-2.82-.08-2.89,0-.32-.47-.47-.7-.4V29.8a3.69,3.69,0,0,0,1.41-.47h.23c0,.94-.08,1.88-.08,2.82v1.49a3.64,3.64,0,0,1,2-.79c.78,0,1.57.32,1.57,1.88v2.59c0,.23.23.31.55.39v.16c-.32,0-.63-.08-.94-.08s-.63.08-.87.08v-.16c.16-.08.47-.16.47-.39v-.86c0-2.51-.39-3-1.33-3a2.46,2.46,0,0,0-1.33.55v3.21Z"/><path class="cls-1" d="M16.53,32.93a6.12,6.12,0,0,1,1.64-.15c1.26,0,1.57.62,1.57,1.72v2.19c0,.32.08.47.31.47s.24,0,.32-.08l.08.16-1,.71a1.52,1.52,0,0,1-.47-.79,2.84,2.84,0,0,1-1.57.71,1.36,1.36,0,0,1-1.25-1.41c0-.79.62-1.18,1.25-1.41a4.25,4.25,0,0,1,1.41-.16v-.63c0-.62-.23-.86-1.17-.86-.4,0-.94,0-1.1.55h-.16v-1Zm2.35,2.27h-.55A1.2,1.2,0,0,0,17,36.38c0,.55.23.94.78.94a1.67,1.67,0,0,0,1.1-.55Z"/><path class="cls-1" d="M25.54,37.24c0,.24.23.31.55.39v.16c-.32,0-.63-.08-.94-.08s-.63.08-.87.08v-.16c.16-.08.4-.15.4-.39v-2c0-1.56-.4-2-1.26-2a2.08,2.08,0,0,0-1,.47v3.45c0,.24.24.31.55.39v.16c-.31,0-.62-.08-.94-.08s-.62.08-.86.08v-.16c.16-.08.39-.15.39-.39V35.67a13,13,0,0,0-.08-2c-.07-.16-.15-.24-.54-.24v-.16a3.49,3.49,0,0,0,1.25-.54h.23v.62a3.08,3.08,0,0,1,1.73-.62,1.37,1.37,0,0,1,1.33.78,3.35,3.35,0,0,1,1.88-.78A1.41,1.41,0,0,1,28.67,34v3.21c0,.24.24.31.55.39v.16c-.31,0-.63-.08-.94-.08s-.63.08-.94.08v-.16c.23-.08.47-.15.47-.39V34.66c0-.94-.55-1.34-1-1.34a2.8,2.8,0,0,0-1.25.47Z"/><path class="cls-1" d="M33.61,33.87h-.24c-.08-.39-.31-.47-.63-.47-.62,0-1.09.47-1.09,1.49v2.27c0,.24.23.32.55.39v.16c-.32,0-.63-.08-.94-.08s-.63.08-.94.08v-.16c.23-.07.54-.15.54-.39V35.05a4.85,4.85,0,0,0-.15-1.41c-.08-.08-.16-.16-.24-.16a.83.83,0,0,0-.39.08V33.4a6.77,6.77,0,0,0,1.33-.62h.16l.08,1h0c.39-.54.78-1,1.41-1a1.88,1.88,0,0,1,.62.07v1Z"/><path class="cls-1" d="M36.74,32.78a2.59,2.59,0,1,1-2.59,2.58,2.43,2.43,0,0,1,2.59-2.58m0,4.77c1.25,0,1.64-1.25,1.64-2.19s-.39-2.19-1.64-2.19-1.65,1.25-1.65,2.19.4,2.19,1.65,2.19"/><path class="cls-1" d="M44.57,34h-.15a1.54,1.54,0,0,0-1.49-.94,1.8,1.8,0,0,0-1.73,2,2,2,0,0,0,2.12,2.19,1.64,1.64,0,0,0,1.33-.63l.16.08-.55.94a4,4,0,0,1-1.33.24,2.59,2.59,0,1,1,0-5.17,5,5,0,0,1,1.64.31Z"/><path class="cls-1" d="M46.84,37.24c0,.24.24.31.55.39v.16c-.31,0-.62-.08-.94-.08s-.62.08-.94.08v-.16c.24-.08.55-.15.55-.39V33.32c0-1.48-.08-2.82-.08-2.89,0-.32-.47-.24-.62-.24V30a6.63,6.63,0,0,0,1.41-.71h.15c0,.94-.08,1.88-.08,2.82v3c.32-.32,1.65-1.33,1.65-1.65,0-.15-.24-.23-.31-.31v-.16c.31,0,.62.08.94.08s.62-.08.94-.08v.24c-.87.15-1.81,1.17-2.35,1.64l1.8,1.88a2.49,2.49,0,0,0,1.17.86v.24c-.31,0-.62-.08-.94-.08s-.62.08-.94.08v-.16a.17.17,0,0,0,.16-.15c0-.08,0-.08-.08-.16L47,35.2l-.16.16Z"/><path class="cls-2" d="M41.75,11.16S37.21,12.25,36,12.33A3.44,3.44,0,0,1,36,13l-2.66,2.5S30.86,11,28.83,9.28C29.06,8.73,32,7.16,32,7.16a16.87,16.87,0,0,0,1.8-2.11c.63-1,3.06-4.16,4.7-4.23s2,.39,2.43.86S43.08,4.5,43.08,4.5s1.41,2,1.65,2a2,2,0,0,1,.55,2.35,3.15,3.15,0,0,1-2.74,2.11"/><path class="cls-2" d="M47.08,25.8c-.47-2.74-3.68-5.48-4.94-6.11A14.63,14.63,0,0,0,37,18.75a23.64,23.64,0,0,0-5.4,1,4.58,4.58,0,0,0,0-1.17c-.78,1-2.27,1.33-4.07,1.33a5.26,5.26,0,0,1-3.22-1.33s0,1.17-.39,1.49a26.39,26.39,0,0,0-1.8,2.11s1,.47-3.6.16a9.53,9.53,0,0,1-7-4.15s-.08.39-2,.86a4.37,4.37,0,0,1-3.13-.39s1.25,5,5.56,7.2H35.72s2-3,6.66,0Z"/><path class="cls-3" d="M8.7,11.63a5.54,5.54,0,0,0,.39,2c.15.63.55.79,1.33,1.18a1.37,1.37,0,0,0,1.49-.24c.55-.31.39-1.33.39-1.33a4.08,4.08,0,0,0,.78-.31c.24-.16.55-.16.55-1.41,0-.86-1.8-1.18-2.51-1.18a2.19,2.19,0,0,0,.47-.23,5.22,5.22,0,0,0,1.1-.71A1.34,1.34,0,0,0,13.08,8c-.31-1.41-2.19-1.09-2.19-1.09"/><path class="cls-4" d="M8.7,11.63a3.5,3.5,0,0,1-2.9.78A1.58,1.58,0,0,1,4.62,11c-.15-.63.86-1.33.86-1.33L5.33,9c-.08-.23,0-.55.94-1.33C7.05,7,8,8.26,8.46,8.88c.08.08,0-.23-.08-.23a3.47,3.47,0,0,1,0-1.25c0-.16,0-.63.79-1,1.17-.71,1.95.7,1.95.7"/><path class="cls-4" d="M5.09,16.48A3.38,3.38,0,0,0,8.7,19.07c2.35-.16,3-1,3.21-1.33.62-.87.39-1.34.39-1.34H11s-.39,1.1-2.27,1.1-1.65-.78-1.88-1.1"/><path class="cls-2" d="M28.51,9.28S25,10.69,24.44,12.64c0,0-1.1-.15-1.33.79-.08.39.47.7.47.7s-.39,3,.63,3.92,1.17,1.57,2.58,1.8a7.24,7.24,0,0,0,3.76-.63,6.06,6.06,0,0,0,2.66-3.76v-.15a15.84,15.84,0,0,0-1.25-2c-.39-.47-.63-.94-.78-1.1-.24-.39-2.67-2.89-2.67-2.89"/><path class="cls-1" d="M32.82,16.72c.08-.08.08,0,.08.15a5.21,5.21,0,0,1-6.34,3.22,4.57,4.57,0,0,1-3.22-5.88l.55.24s-.7,3.83,2.74,4.93c4.31,1.49,6.19-2.66,6.19-2.66"/><path class="cls-1" d="M22.25,21.73s-7,1-10.66-3.37c0,0,1.88,4.86,10,4.47"/><path class="cls-1" d="M12.53,25.8a12.1,12.1,0,0,1-6.18-6.65s-.08,0-.08.07a11.78,11.78,0,0,0,4.54,6.58Z"/><path class="cls-1" d="M30.39,25.33c-.07-.62,1.73-2.74,1.73-2.74l-3.29-.39h4.31A14.25,14.25,0,0,0,31,25.26a3.4,3.4,0,0,0-.63.07"/><path class="cls-1" d="M42.38,25.8s-4.07-2.11-5.88-.15c-.31.39-1.72.31-1-.16,3.6-3,6.89.31,6.89.31"/><path class="cls-1" d="M34.86,14.29l1.49-1.1c-.55-2.9-4.15-6.26-4.15-6.26L28.28,9.28s4.07,4.23,5.17,6.34c0,0,.08,0,0-.08a22.14,22.14,0,0,0-3.84-5.95l2.51-1.8s3.13,2.43,3.6,5.09l-.86,1.41"/><path class="cls-1" d="M37.05,12.25s-.08-.08,0-.08a42.35,42.35,0,0,0,5.88-1.64c3.76-1.25,1.33-4.7-2-8.15s-7.68,3.84-7.75,3.84-.08-.16-.08-.16c.55-.94,5.32-9.55,8.38-4.46C43.79,5,44.1,5.52,45.2,6.22c0,0,2.11,1.57.39,3.21-2.66,2.51-8.54,2.82-8.54,2.82"/><path class="cls-1" d="M33.92,7.63c.31-1.17,3.76-2.9,3.76-2.9s1.17.71-.55,1.8c0,0,.47-1.33-1-.23a11.65,11.65,0,0,1-2.19,1.33"/><path class="cls-1" d="M35.25,9.28c.31-1.18,3.84-2.9,3.84-2.9s1.17.7-.55,1.8c0,0,.47-1.33-1-.24-1.49.94-2.27,1.34-2.27,1.34"/><path class="cls-1" d="M36.5,11.39c.32-1.17,3.84-2.9,3.84-2.9s1.18.71-.55,1.8c0,0,.47-1.33-1-.23a17.63,17.63,0,0,1-2.28,1.33"/><path class="cls-3" d="M9.09,17.5c.78,0,1.72-1,1.72-1l.71-.08a3.45,3.45,0,0,1-2.28,1.34"/><path class="cls-1" d="M.24,16.25a.21.21,0,0,0-.24.23.21.21,0,0,0,.24.24h19a.21.21,0,0,0,.24-.24.21.21,0,0,0-.24-.23Z"/><path class="cls-1" d="M24,16.33A4.28,4.28,0,0,0,27,16.09a3.18,3.18,0,0,1-2.75.94"/><path class="cls-1" d="M23.66,20.32s-2.74,3.06-2.2,5.33c.08.39-.94.08-.94.08-.07-2.9,3.14-5.41,3.14-5.41"/><path class="cls-1" d="M23.66,20.32s-3.29,2.51-3.21,5.48h0c.07,0,.78.24,1,0l.08-.07v-.08a4.74,4.74,0,0,1-.08-1c0-2.12,2.2-4.23,2.2-4.31,0,.08.08,0,0,0h0m-3.14,5.33c0-2.27,2-4.47,2.82-5-.54.63-1.95,2.35-1.95,4a5.86,5.86,0,0,0,.07,1.1h0v.07c-.15.16-.62,0-.86-.07a.08.08,0,0,1-.08-.08"/><path class="cls-1" d="M12.38,16.48c0-.15-.16,0-.16,0,0,1.33-1.57,2.35-3.45,2.35s-3.44-1.09-3.44-2.35l-.71-.08a3.69,3.69,0,0,0,4.23,3.06c3.06-.24,3.53-2.27,3.53-3"/><path class="cls-1" d="M29.92,23.92a.47.47,0,0,1-.07-.94h-.08a.63.63,0,1,0,.62.63v-.08a.55.55,0,0,1-.47.39"/><path class="cls-1" d="M24.05,18.68l-.39,1.72s3.29,3.13,8.07-.24V18.52l-.4,1.41a6.55,6.55,0,0,1-6.89.31l.16-1.41Z"/><path class="cls-1" d="M2.74,14.68c4.78,3,5.56-2.51,5.56-2.51s-1.41,4.47-5.4,1.65Z"/><path class="cls-1" d="M45.12,17,54,16.8s.24.31-.15.62-8,0-8,0"/><path class="cls-1" d="M48.41,19.77l6.82-.23a.47.47,0,0,1-.08.62c-.32.32-6.11,0-6.11,0"/><path class="cls-1" d="M44.34,14.37l6.81-.24a.47.47,0,0,1-.08.63c-.31.31-6.11,0-6.11,0"/><path class="cls-1" d="M23.81,14.6s-1.41-.55-.86-1.41c.39-.62,1.57-.55,1.57-.55s-1.25.47-1.18.79.63.7.63.7"/><path class="cls-1" d="M24.52,12.17a7,7,0,0,1,3.84-3l.39.31a8.26,8.26,0,0,0-4.15,2.82"/><path class="cls-1" d="M11.75,10.53s1.41.08,1.41,1.25a1.28,1.28,0,0,1-1.25,1.41s.15,1.73-1.33,1.65-1.81-2.2-1.81-2.2a2.52,2.52,0,0,0,1.81,2.51,1.51,1.51,0,0,0,1.72-1.64s1.72-.32,1.41-1.73a1.66,1.66,0,0,0-2-1.25"/><path class="cls-1" d="M11.75,10.45h0c0,.08,1.41.24,1.41,1.33a1.22,1.22,0,0,1-1.25,1.33h0a1.73,1.73,0,0,1-.39,1.26,1.28,1.28,0,0,1-.94.31c-1.49-.08-1.81-2.11-1.81-2.19h0s0,2.11,1.81,2.5a2,2,0,0,0,1.25-.31,2.1,2.1,0,0,0,.55-1.33,2.12,2.12,0,0,0,1.25-.78.85.85,0,0,0,.16-.63.67.67,0,0,0-.08-.39c-.39-1.33-1.88-1.1-2-1.1m1.49,1.33h0c0-.86-.78-1.17-1.18-1.33a1.54,1.54,0,0,1,1.57,1.18c0,.15.08.23.08.39a1.41,1.41,0,0,1-.16.62,2,2,0,0,1-1.25.71h0a1.54,1.54,0,0,1-.47,1.25,1.8,1.8,0,0,1-1.18.32,2.38,2.38,0,0,1-1.72-2c.16.62.71,1.72,1.72,1.8a1.45,1.45,0,0,0,1-.31,2,2,0,0,0,.39-1.18v-.08a1.28,1.28,0,0,0,1.18-1.41"/><path class="cls-1" d="M8.15,8.49s-.79-1.17-1.8-.55A1.31,1.31,0,0,0,5.8,9.75s-1.57.7-.71,1.95,2.82.47,2.82.47a2.52,2.52,0,0,1-3-.23,1.43,1.43,0,0,1,.55-2.27S4.78,8,6.19,7.55a1.5,1.5,0,0,1,2,.94"/><path class="cls-1" d="M6.11,7.47a1.3,1.3,0,0,0-.78.63,2.28,2.28,0,0,0-.16.71,1.42,1.42,0,0,0,.16.78,1.81,1.81,0,0,0-.86,1.1v.23a2.08,2.08,0,0,0,.31,1,2.4,2.4,0,0,0,3.05.23V12.1H7.76s-2,.78-2.75-.47a1.1,1.1,0,0,1-.23-.94,1.63,1.63,0,0,1,.86-.94h0a1.31,1.31,0,0,1,.55-1.81c.94-.54,1.8.55,1.8.55h.08V8.41a1.46,1.46,0,0,0-2-.94M4.86,11.86a1.91,1.91,0,0,1-.32-1.17,1.87,1.87,0,0,1,.87-1.1V9.51a1.91,1.91,0,0,1,0-1.41,1.3,1.3,0,0,1,.78-.63A1.47,1.47,0,0,1,8,8.18a1.57,1.57,0,0,0-1.72-.31A1.26,1.26,0,0,0,5.48,9a1.34,1.34,0,0,0,.16.71,1.69,1.69,0,0,0-.94,1V11a1.72,1.72,0,0,0,.24.78,2.29,2.29,0,0,0,2.42.63,2.31,2.31,0,0,1-2.5-.55"/><path class="cls-1" d="M8.46,8.81S8.23,7,9,6.53a1.45,1.45,0,0,1,2.19.63,1.36,1.36,0,0,1,1.88,1.49c-.15,1.17-2,1.72-2,1.72s2-.23,2.28-1.64a1.55,1.55,0,0,0-2.12-1.8A1.69,1.69,0,0,0,8.85,6.3c-1.09.7-.39,2.51-.39,2.51"/><path class="cls-1" d="M8.77,6.38c-1,.62-.39,2.43-.39,2.5h.08V8.81S8.23,7,9,6.61a2,2,0,0,1,1.25-.23,2,2,0,0,1,.86.86h0a1.18,1.18,0,0,1,1.34.16,1.31,1.31,0,0,1,.47,1.25c-.16,1.1-2,1.72-2,1.72v.08h0s2-.23,2.35-1.72a1.74,1.74,0,0,0-.47-1.57,1.53,1.53,0,0,0-1.65-.23,2.27,2.27,0,0,0-1.09-.87,1.51,1.51,0,0,0-1.34.32M8.23,7.63a1.45,1.45,0,0,1,.54-1.25,1.74,1.74,0,0,1,1.34-.32,1.9,1.9,0,0,1,1.09.87h.08a1.42,1.42,0,0,1,1.57.23,1.67,1.67,0,0,1,.47,1.25v.4c-.16,1-1.26,1.41-1.88,1.56.55-.23,1.49-.78,1.64-1.64V8.49a1.15,1.15,0,0,0-.55-1.09,1.29,1.29,0,0,0-1.41-.16,1.66,1.66,0,0,0-.86-.86,1.64,1.64,0,0,0-1.33.15A2,2,0,0,0,8.3,8.18v.23c0-.23-.07-.47-.07-.78"/><path class="cls-1" d="M27.26,13.66c0,.08-.08,0-.08,0a.76.76,0,0,0-.39-.94,1.64,1.64,0,0,0-1-.08s-.08,0,0-.07a1.29,1.29,0,0,1,1.33-.16c.32.23.24.94.16,1.25"/><path class="cls-1" d="M47.16,25.65c-2.82-10.73-15.43-6.43-15.43-6.43a5.21,5.21,0,0,1-.08.94c12.3-4,15.51,5.49,15.51,5.49"/><polygon class="cls-1" points="62.29 8.3 64.69 8.3 64.69 9.98 62.29 9.98 62.29 14.83 60.46 14.83 60.46 3.12 65.31 3.12 65.31 4.8 62.29 4.8 62.29 8.3"/><path class="cls-1" d="M66.75,5.9A2.6,2.6,0,0,1,69.54,3C71.36,3,72.32,4,72.32,5.9V12c0,1.87-1,3-2.78,3s-2.79-1.05-2.79-3Zm1.83,6.24c0,.82.38,1.15,1,1.15s1-.33,1-1.15V5.8c0-.81-.39-1.15-1-1.15s-1,.34-1,1.15Z"/><path class="cls-1" d="M74.29,5.9A2.6,2.6,0,0,1,77.07,3C78.9,3,79.86,4,79.86,5.9V12c0,1.87-1,3-2.79,3s-2.78-1.05-2.78-3Zm1.87,6.24c0,.82.39,1.15,1,1.15s1-.33,1-1.15V5.8c0-.81-.38-1.15-1-1.15s-1,.34-1,1.15Z"/><path class="cls-1" d="M82,3.12H84.9c1.82,0,2.74,1,2.74,2.88V12c0,1.87-.92,2.88-2.74,2.88H82ZM83.84,4.8v8.4H84.9c.58,0,1-.29,1-1.15V5.9c0-.82-.34-1.15-1-1.15H83.84Z"/><path class="cls-1" d="M92.58,3C94.36,3,95.32,4,95.32,5.9v.38H93.54V5.8c0-.81-.33-1.15-.91-1.15s-.91.34-.91,1.15.38,1.49,1.58,2.55c1.54,1.34,2,2.35,2,3.7,0,1.87-1,2.92-2.74,2.92s-2.73-1.05-2.73-2.92v-.72h1.72v.81c0,.82.39,1.15,1,1.15s1-.28,1-1.15-.38-1.49-1.58-2.54c-1.54-1.35-2-2.36-2-3.7C89.85,4,90.76,3,92.58,3"/><polygon class="cls-1" points="99.11 8.06 101.66 8.06 101.66 9.74 99.11 9.74 99.11 13.15 102.28 13.15 102.28 14.83 97.24 14.83 97.24 3.12 102.28 3.12 102.28 4.8 99.11 4.8 99.11 8.06"/><path class="cls-1" d="M108.19,14.83a3.7,3.7,0,0,1-.15-1.44V11.57c0-1.11-.38-1.49-1.2-1.49h-.62v4.8h-1.83V3.12h2.79c1.92,0,2.73.91,2.73,2.68v.92a2.3,2.3,0,0,1-1.2,2.35v0c.92.38,1.25,1.25,1.25,2.49v1.83a3.43,3.43,0,0,0,.19,1.44h-2Zm-2-10V8.4h.72c.67,0,1.1-.29,1.1-1.25V6c0-.82-.28-1.2-1-1.2Z"/><polygon class="cls-1" points="114.76 12.67 114.81 12.67 116.2 3.12 117.88 3.12 116.06 14.83 113.32 14.83 111.5 3.12 113.37 3.12 114.76 12.67"/><rect class="cls-1" x="120.33" y="3.12" width="1.82" height="11.76"/><path class="cls-1" d="M129.74,10.46v1.59c0,1.87-1,2.92-2.73,2.92s-2.74-1.05-2.74-2.92V5.9c0-1.87,1-3,2.74-3s2.73,1.06,2.73,3V7.05H128V5.8c0-.81-.38-1.15-1-1.15s-1,.34-1,1.15v6.34c0,.82.39,1.15,1,1.15s1-.28,1-1.15V10.46Z"/><polygon class="cls-1" points="133.63 8.06 136.18 8.06 136.18 9.74 133.63 9.74 133.63 13.15 136.85 13.15 136.85 14.83 131.81 14.83 131.81 3.12 136.85 3.12 136.85 4.8 133.63 4.8 133.63 8.06"/><polygon class="cls-1" points="68.94 28.59 68.89 28.59 68.22 34.83 65.72 34.83 64.38 23.12 66.2 23.12 67.16 32.33 67.21 32.33 68.07 23.12 69.85 23.12 70.76 32.43 70.81 32.43 71.72 23.12 73.35 23.12 72.01 34.83 69.56 34.83 68.94 28.59"/><path class="cls-1" d="M80.36,34.83H78.49l-.33-2.11H75.9l-.34,2.11H73.88l1.87-11.76h2.69Zm-4.22-3.7h1.78l-.87-5.95h0Z"/><path class="cls-1" d="M86.32,34.83a3.7,3.7,0,0,1-.15-1.44V31.57c0-1.11-.38-1.49-1.2-1.49h-.62v4.8H82.52V23.12h2.79c1.92,0,2.74.91,2.74,2.68v.92a2.31,2.31,0,0,1-1.21,2.35v.05c.92.38,1.25,1.25,1.25,2.49v1.83a3.27,3.27,0,0,0,.2,1.44h-2Zm-2-10v3.6H85c.67,0,1.1-.29,1.1-1.25V26c0-.82-.28-1.2-1-1.2Z"/><polygon class="cls-1" points="91.93 28.06 94.48 28.06 94.48 29.74 91.93 29.74 91.93 33.15 95.15 33.15 95.15 34.83 90.11 34.83 90.11 23.12 95.15 23.12 95.15 24.8 91.93 24.8 91.93 28.06"/><polygon class="cls-1" points="99.38 34.83 97.5 34.83 97.5 23.12 99.38 23.12 99.38 28.11 101.44 28.11 101.44 23.12 103.36 23.12 103.36 34.83 101.44 34.83 101.44 29.79 99.38 29.79 99.38 34.83"/><path class="cls-1" d="M105.42,25.9A2.6,2.6,0,0,1,108.21,23C110,23,111,24,111,25.9V32c0,1.87-1,3-2.78,3s-2.79-1-2.79-3Zm1.88,6.24c0,.82.38,1.15,1,1.15s1-.33,1-1.15V25.8c0-.81-.39-1.15-1-1.15s-1,.34-1,1.15Z"/><path class="cls-1" d="M114.88,23.12v9.07c0,.82.39,1.15,1,1.15s1-.29,1-1.15V23.12h1.73v8.93c0,1.87-1,3-2.74,3s-2.73-1.05-2.73-3V23.12Z"/><path class="cls-1" d="M123.19,23c1.77,0,2.74,1.06,2.74,2.93v.38H124.2V25.8c0-.81-.34-1.15-.92-1.15s-.91.34-.91,1.15.39,1.49,1.59,2.55c1.53,1.34,2,2.35,2,3.7,0,1.87-1,2.92-2.73,2.92s-2.74-1-2.74-2.92v-.72h1.73v.81c0,.82.38,1.15,1,1.15s1-.28,1-1.15-.39-1.49-1.59-2.54c-1.53-1.35-2-2.36-2-3.7,0-1.87.86-2.93,2.64-2.93"/><polygon class="cls-1" points="129.77 28.06 132.26 28.06 132.26 29.74 129.77 29.74 129.77 33.15 132.93 33.15 132.93 34.83 127.89 34.83 127.89 23.12 132.93 23.12 132.93 24.8 129.77 24.8 129.77 28.06"/></svg>