<svg width="80" height="57" viewBox="0 0 80 57" fill="none" xmlns="http://www.w3.org/2000/svg">
<path d="M51.7314 56.5371C67.3437 56.5371 79.9999 43.8808 79.9999 28.2685C79.9999 12.6562 67.3437 0 51.7314 0C36.1191 0 23.4629 12.6562 23.4629 28.2685C23.4629 43.8808 36.1191 56.5371 51.7314 56.5371Z" fill="#3C50E0"/>
<rect y="26.5723" width="14.4169" height="2.54417" rx="1.27208" fill="#FF5670"/>
<rect x="8.48047" y="43.5334" width="14.4169" height="2.54417" rx="1.27208" fill="#FF5670"/>
<rect x="8.48047" y="10.4592" width="14.4169" height="2.54417" rx="1.27208" fill="#FF5670"/>
<path d="M51.7313 50.8832C64.2211 50.8832 74.3461 40.7582 74.3461 28.2684C74.3461 15.7786 64.2211 5.65356 51.7313 5.65356C39.2415 5.65356 29.1165 15.7786 29.1165 28.2684C29.1165 40.7582 39.2415 50.8832 51.7313 50.8832Z" fill="#E1E4FF"/>
<path d="M50.3179 9.8938H53.1447V28.2683H50.3179V9.8938Z" fill="#FF5670"/>
<path d="M62.0281 36.2598L59.7313 38.558L50.5383 29.3651L52.8366 27.0654L62.0281 36.2598Z" fill="#FF5670"/>
<path d="M51.7314 31.0954C53.2926 31.0954 54.5582 29.8297 54.5582 28.2685C54.5582 26.7073 53.2926 25.4417 51.7314 25.4417C50.1702 25.4417 48.9045 26.7073 48.9045 28.2685C48.9045 29.8297 50.1702 31.0954 51.7314 31.0954Z" fill="#FF5670"/>
<path d="M51.7313 29.6818C52.5119 29.6818 53.1447 29.049 53.1447 28.2684C53.1447 27.4878 52.5119 26.855 51.7313 26.855C50.9507 26.855 50.3179 27.4878 50.3179 28.2684C50.3179 29.049 50.9507 29.6818 51.7313 29.6818Z" fill="white"/>
</svg>
