<svg width="80" height="80" viewBox="0 0 80 80" fill="none" xmlns="http://www.w3.org/2000/svg">
<g clip-path="url(#clip0_176_1909)">
<path d="M80 50.1408C79.7079 50.9963 79.541 51.9145 79.1236 52.7074C77.6422 55.566 75.2217 57.0057 72.0292 57.1518C71.0902 57.1935 70.1513 57.1518 69.1288 57.1518C69.1288 63.0986 69.1288 69.0036 69.1288 74.9922C62.1805 74.9922 55.3365 74.9922 48.3881 74.9922C48.3881 76.6823 48.3881 78.289 48.3881 79.9791C47.9291 79.9791 47.5326 79.9791 47.157 79.9791C44.3193 79.9791 41.4815 80.0209 38.6437 79.9583C35.18 79.8957 32.1961 77.2874 31.7371 73.9906C31.1946 70.1304 33.0934 66.8336 36.5571 65.7277C37.2874 65.4982 38.0803 65.373 38.8524 65.3521C41.8362 65.3104 44.8409 65.3312 47.8247 65.3312C47.9708 65.3312 48.1169 65.3521 48.3672 65.373C48.3672 67.0005 48.3672 68.6072 48.3672 70.2556C53.7507 70.2556 59.0506 70.2556 64.4132 70.2556C64.4132 69.9426 64.4132 69.6713 64.4132 69.4001C64.4132 54.5644 64.3505 39.7287 64.434 24.8931C64.4966 15.253 57.8821 7.28223 49.2019 5.2791C47.6369 4.92438 46.0094 4.77831 44.4027 4.73658C41.4606 4.65312 38.5185 4.69485 35.5764 4.71572C25.6442 4.75745 17.5483 11.5389 15.8373 21.325C15.6286 22.577 15.5869 23.8706 15.5869 25.1435C15.566 35.4512 15.566 45.759 15.566 56.0668C15.566 56.4006 15.566 56.7345 15.566 57.0266C15.4825 57.1101 15.4408 57.1518 15.3991 57.1518C12.4778 57.1309 9.5566 57.2979 6.6771 57.0057C2.98383 56.6301 0.0834679 53.2707 0.0208701 49.5775C-0.0417278 45.5086 -0.0625937 41.4606 0.0208701 37.3918C0.104334 33.3646 3.52635 30.0052 7.55347 29.8383C8.61764 29.7966 9.6818 29.8383 10.892 29.8383C10.892 29.4627 10.892 29.1706 10.892 28.8785C10.9964 26.0407 10.8712 23.1821 11.2885 20.386C12.7491 10.4538 21.012 2.17007 30.9025 0.479933C31.7997 0.333871 32.6761 0.18781 33.5733 0.041748C37.8508 0.041748 42.1075 0.041748 46.385 0.041748C46.5519 0.0834799 46.7188 0.166944 46.9066 0.166944C57.6109 1.14764 66.4789 9.13929 68.6072 19.6766C69.1914 22.5561 69.0454 25.4773 69.0871 28.3777C69.0871 28.8159 69.0871 29.254 69.0871 29.7757C70.0052 29.7757 70.8399 29.7757 71.6536 29.7757C74.8878 29.7966 77.3918 31.132 78.9776 33.9697C79.4366 34.8044 79.6453 35.806 79.9791 36.7241C80 41.1894 80 45.6547 80 50.1408Z" fill="#3C50E0"/>
<path d="M59.5307 26.5624C59.5307 34.8044 59.5307 42.9839 59.5307 51.2676C59.2177 51.2676 58.9464 51.2676 58.6752 51.2676C54.7524 51.2676 50.8087 51.2885 46.8859 51.2468C46.3017 51.2468 45.9469 51.4137 45.5922 51.8727C43.9647 54.0428 42.2954 56.1711 40.647 58.2994C40.4592 58.5498 40.2505 58.7794 40.021 59.0715C38.6856 57.3605 37.4128 55.7121 36.1191 54.0428C35.5557 53.3125 34.9506 52.5822 34.4081 51.8101C34.0951 51.3928 33.7612 51.2259 33.2396 51.2259C29.3168 51.2468 25.3731 51.2468 21.4503 51.2468C21.1582 51.2468 20.8869 51.2468 20.5322 51.2468C20.5322 43.0047 20.5322 34.8044 20.5322 26.5415C33.49 26.5624 46.4686 26.5624 59.5307 26.5624ZM33.8447 41.1268C33.8447 39.5618 33.8447 38.0595 33.8447 36.5363C32.2797 36.5363 30.7983 36.5363 29.2751 36.5363C29.2751 38.1012 29.2751 39.6036 29.2751 41.1268C30.84 41.1268 32.3423 41.1268 33.8447 41.1268ZM42.3163 41.1477C42.3163 39.5827 42.3163 38.0804 42.3163 36.5571C40.7513 36.5571 39.249 36.5571 37.7258 36.5571C37.7258 38.1012 37.7258 39.6036 37.7258 41.1477C39.249 41.1477 40.7513 41.1477 42.3163 41.1477ZM46.3017 41.1268C47.8666 41.1268 49.3689 41.1268 50.913 41.1268C50.913 39.5827 50.913 38.0804 50.913 36.5571C49.3481 36.5571 47.8457 36.5571 46.3017 36.5571C46.3017 38.1012 46.3017 39.6036 46.3017 41.1268Z" fill="#FF5670"/>
</g>
<defs>
<clipPath id="clip0_176_1909">
<rect width="80" height="79.9791" fill="white"/>
</clipPath>
</defs>
</svg>
