<svg width="80" height="80" viewBox="0 0 80 80" fill="none" xmlns="http://www.w3.org/2000/svg">
<path d="M59.78 10.0167L59.1667 10H20.8333L20.22 10.0167C17.4573 10.1733 14.8593 11.3812 12.9589 13.3926C11.0585 15.4039 9.99982 18.0662 10 20.8333V59.1667L10.0167 59.78C10.1733 62.5427 11.3812 65.1407 13.3926 67.0411C15.4039 68.9415 18.0662 70.0002 20.8333 70H40.0733C38.7617 67.9532 37.806 65.6991 37.2467 63.3333H20.8333L20.4067 63.3133C19.3806 63.2077 18.4301 62.7252 17.7392 61.9592C17.0484 61.1932 16.6662 60.1982 16.6667 59.1667L16.67 26.6667H63.3333V37.2467C65.7367 37.8133 67.9833 38.78 70.0033 40.0733V20.8333L69.9867 20.22C69.8353 17.563 68.7112 15.0546 66.8287 13.1734C64.9462 11.2921 62.4371 10.1696 59.78 10.02V10.0167ZM36.6467 33.8267C36.5644 33.2276 36.2678 32.6786 35.8118 32.2815C35.3559 31.8843 34.7714 31.6659 34.1667 31.6667H22.5L22.16 31.69C21.5615 31.7722 21.013 32.0683 20.6159 32.5236C20.2188 32.9789 20 33.5625 20 34.1667V57.5L20.0233 57.84C20.1055 58.4385 20.4016 58.987 20.8569 59.3841C21.3122 59.7812 21.8959 60 22.5 60H34.1667L34.5067 59.9767C35.1052 59.8945 35.6537 59.5984 36.0508 59.1431C36.4479 58.6878 36.6666 58.1041 36.6667 57.5V34.1667L36.6433 33.8267H36.6467ZM25 36.6667H31.6667V55H25V36.6667ZM60 34.1667C60 33.5036 59.7366 32.8677 59.2678 32.3989C58.7989 31.9301 58.163 31.6667 57.5 31.6667H42.5133L42.1767 31.69C41.5494 31.7763 40.9783 32.0973 40.5786 32.5884C40.1789 33.0794 39.9804 33.7037 40.0231 34.3354C40.0658 34.9671 40.3467 35.559 40.8089 35.9917C41.271 36.4244 41.8802 36.6656 42.5133 36.6667H57.5L57.84 36.6433C58.4385 36.5612 58.987 36.2651 59.3841 35.8098C59.7812 35.3545 60 34.7708 60 34.1667Z" fill="#E1E4FF"/>
<path d="M58 60.55C59.4083 60.55 60.55 59.4083 60.55 58C60.55 56.5916 59.4083 55.45 58 55.45C56.5916 55.45 55.45 56.5916 55.45 58C55.45 59.4083 56.5916 60.55 58 60.55Z" fill="#3C50E0"/>
<path d="M72.144 53.529H70.291C70.053 53.529 69.883 53.342 69.781 53.087C69.7203 52.9934 69.6879 52.8841 69.6879 52.7725C69.6879 52.6609 69.7203 52.5516 69.781 52.458L71.158 51.2C71.4279 50.9404 71.6423 50.6288 71.7884 50.284C71.9345 49.9393 72.0092 49.5685 72.008 49.194C72.0076 48.8173 71.9323 48.4444 71.7864 48.0971C71.6404 47.7497 71.4268 47.4349 71.158 47.171L68.88 44.842C68.6161 44.5763 68.3023 44.3654 67.9565 44.2214C67.6108 44.0775 67.24 44.0034 66.8655 44.0034C66.491 44.0034 66.1202 44.0775 65.7745 44.2214C65.4287 44.3654 65.1149 44.5763 64.851 44.842L63.542 46.1C63.438 46.1666 63.317 46.2021 63.1935 46.2021C63.07 46.2021 62.949 46.1666 62.845 46.1C62.7423 46.0617 62.6527 45.9951 62.5865 45.9078C62.5203 45.8205 62.4802 45.7162 62.471 45.607V43.856C62.4713 43.113 62.1821 42.3992 61.6648 41.866C61.1474 41.3327 60.4426 41.0221 59.7 41H56.402C55.643 41 54.9148 41.3003 54.3765 41.8355C53.8382 42.3706 53.5335 43.097 53.529 43.856V45.709C53.529 45.947 53.342 46.117 53.087 46.219C52.9934 46.2797 52.8841 46.3121 52.7725 46.3121C52.6609 46.3121 52.5516 46.2797 52.458 46.219L51.2 44.842C50.6616 44.3068 49.9361 44.002 49.177 43.992C48.8028 43.9927 48.4326 44.0683 48.0881 44.2143C47.7436 44.3603 47.4318 44.5737 47.171 44.842L44.842 47.12C44.5685 47.3847 44.351 47.7017 44.2025 48.0522C44.054 48.4026 43.9774 48.7794 43.9774 49.16C43.9774 49.5406 44.054 49.9174 44.2025 50.2678C44.351 50.6183 44.5685 50.9353 44.842 51.2L46.1 52.458C46.1666 52.562 46.2021 52.683 46.2021 52.8065C46.2021 52.93 46.1666 53.051 46.1 53.155C46.0617 53.2577 45.9951 53.3473 45.9078 53.4135C45.8205 53.4797 45.7162 53.5198 45.607 53.529H43.856C43.0985 53.529 42.3721 53.8299 41.8365 54.3655C41.3009 54.9011 41 55.6275 41 56.385V59.598C41 60.357 41.3003 61.0852 41.8355 61.6235C42.3706 62.1618 43.097 62.4665 43.856 62.471H45.709C45.947 62.471 46.117 62.658 46.219 62.913C46.2797 63.0067 46.3121 63.1159 46.3121 63.2275C46.3121 63.3391 46.2797 63.4484 46.219 63.542L44.842 64.8C44.3068 65.3384 44.002 66.0639 43.992 66.823C43.9914 67.1999 44.0663 67.573 44.2123 67.9205C44.3583 68.268 44.5724 68.5826 44.842 68.846L47.12 71.158C47.3839 71.4237 47.6977 71.6346 48.0435 71.7786C48.3892 71.9225 48.76 71.9966 49.1345 71.9966C49.509 71.9966 49.8798 71.9225 50.2255 71.7786C50.5713 71.6346 50.8851 71.4237 51.149 71.158L52.458 69.9C52.562 69.8334 52.683 69.7979 52.8065 69.7979C52.93 69.7979 53.051 69.8334 53.155 69.9C53.2577 69.9383 53.3473 70.0049 53.4135 70.0922C53.4797 70.1795 53.5198 70.2838 53.529 70.393V72.246C53.5554 72.9856 53.868 73.6861 54.4007 74.1999C54.9335 74.7136 55.6449 75.0005 56.385 75H59.598C60.357 75 61.0852 74.6997 61.6235 74.1645C62.1618 73.6294 62.4665 72.903 62.471 72.144V70.291C62.471 70.053 62.658 69.883 62.913 69.781C63.0067 69.7203 63.1159 69.6879 63.2275 69.6879C63.3391 69.6879 63.4484 69.7203 63.542 69.781L64.834 71.09C65.3724 71.6252 66.0979 71.93 66.857 71.94C67.2312 71.9393 67.6014 71.8637 67.9459 71.7177C68.2904 71.5717 68.6022 71.3583 68.863 71.09L71.141 68.812C71.4067 68.5481 71.6176 68.2343 71.7616 67.8885C71.9055 67.5428 71.9796 67.172 71.9796 66.7975C71.9796 66.423 71.9055 66.0522 71.7616 65.7065C71.6176 65.3607 71.4067 65.0469 71.141 64.783L69.9 63.542C69.8393 63.4484 69.8069 63.3391 69.8069 63.2275C69.8069 63.1159 69.8393 63.0067 69.9 62.913C69.9383 62.8103 70.0049 62.7207 70.0922 62.6545C70.1795 62.5883 70.2838 62.5482 70.393 62.539H72.246C72.9827 62.5127 73.6807 62.2025 74.194 61.6734C74.7073 61.1443 74.9961 60.4372 75 59.7V56.402C75 55.643 74.6997 54.9148 74.1645 54.3765C73.6294 53.8382 72.903 53.5335 72.144 53.529ZM58 63.95C56.8232 63.95 55.6728 63.601 54.6944 62.9472C53.7159 62.2935 52.9533 61.3642 52.5029 60.277C52.0526 59.1897 51.9347 57.9934 52.1643 56.8392C52.3939 55.685 52.9606 54.6248 53.7927 53.7927C54.6248 52.9606 55.685 52.3939 56.8392 52.1643C57.9934 51.9347 59.1897 52.0526 60.277 52.5029C61.3642 52.9533 62.2935 53.7159 62.9472 54.6944C63.601 55.6728 63.95 56.8232 63.95 58C63.95 59.578 63.3231 61.0914 62.2073 62.2073C61.0914 63.3231 59.578 63.95 58 63.95Z" fill="#3C50E0"/>
</svg>
