<svg width="83" height="84" viewBox="0 0 83 84" fill="none" xmlns="http://www.w3.org/2000/svg">
<path d="M34.5856 0.0191292C34.8534 0.0765168 35.1021 0.153034 35.3699 0.172163C42.3329 0.382584 48.6456 2.52505 54.2313 6.63783C61.1943 11.7453 65.8044 18.5171 67.4878 27.0104C69.9937 39.6166 66.5314 50.5202 57.1772 59.377C52.3184 63.9872 46.4648 66.7992 39.827 67.8321C30.4537 69.3051 21.8264 67.373 14.1365 61.7682C7.15432 56.6798 2.69722 49.8507 0.879943 41.3956C0.459101 39.4827 0.382584 37.4932 0.153034 35.5229C0.114775 35.2169 0.0573876 34.9108 0 34.6047C0 34.3369 0 34.0691 0 33.8013C0.0573876 33.4761 0.114775 33.1509 0.153034 32.8257C0.382584 30.8745 0.459101 28.8851 0.879943 26.953C2.77373 18.3832 7.34561 11.5158 14.4999 6.38915C20.0091 2.44854 26.1687 0.382584 32.9596 0.153034C33.2466 0.153034 33.5144 0.0573876 33.8013 0C34.05 0.0191292 34.3178 0.0191292 34.5856 0.0191292ZM34.2221 2.37202C16.6998 2.25725 2.41028 16.6807 2.33376 34.0691C2.25725 51.668 16.6615 66.0531 34.1265 66.0723C51.668 66.1105 66.034 51.7254 66.0531 34.2604C66.0723 16.7189 51.7062 2.27638 34.2221 2.37202Z" fill="#FF5670"/>
<path d="M53.4663 13.2948C51.6299 13.314 50.0995 14.0026 48.99 15.4373C47.8423 16.9294 47.1536 19.0527 48.7031 20.9465C49.0665 21.3865 49.4109 21.8647 49.6978 22.3621C50.5777 23.8733 51.5916 25.3462 52.2611 26.9531C53.5619 30.0711 53.5428 33.3614 52.6246 36.5751C51.7446 39.6931 50.6351 42.7347 49.6022 45.8145C49.1622 47.1344 48.684 48.4543 48.1483 49.9655C44.7242 40.3053 41.3766 30.7981 37.9716 21.1952C39.1959 21.1952 40.3054 21.1761 41.4149 21.2143C41.9505 21.2335 42.1418 21.0422 42.1035 20.5257C42.0653 19.9901 42.0844 19.4544 42.1035 18.9188C42.1226 18.4215 41.9122 18.2684 41.434 18.2684C38.9663 18.2876 36.4987 18.2684 34.031 18.2684C31.0277 18.2684 28.0244 18.2876 25.0211 18.2493C24.4473 18.2493 24.1986 18.3832 24.256 18.9953C24.2942 19.4736 24.3134 19.9709 24.256 20.4683C24.1986 21.0804 24.4473 21.2335 25.0211 21.1952C25.9393 21.1569 26.8384 21.1952 27.7566 21.1761C28.1201 21.1761 28.3114 21.31 28.4261 21.6543C29.8034 25.5758 31.1999 29.4781 32.558 33.3996C32.6346 33.61 32.6346 33.897 32.558 34.0883C30.7599 39.2723 28.9426 44.4372 27.1445 49.6212C27.1253 49.6594 27.0871 49.6977 26.9914 49.8125C23.6247 40.2861 20.258 30.7981 16.853 21.1761C17.8859 21.1761 18.8041 21.1761 19.7223 21.1761C20.6214 21.1761 20.6214 21.1761 20.6214 20.2579C20.6214 18.2684 20.6214 18.2684 18.6511 18.2684C16.2217 18.2684 13.7923 18.2684 11.382 18.2684C11.1716 18.2684 10.9612 18.2684 10.6934 18.2684C19.4354 4.38063 40.4393 1.01389 53.4663 13.2948Z" fill="#3C50E0"/>
<path d="M25.5183 61.3091C28.4259 53.6 31.3145 45.9675 34.2604 38.1819C34.6429 39.2531 34.9873 40.1904 35.3316 41.1278C37.6462 47.67 39.9609 54.2313 42.2946 60.7735C42.4859 61.3282 42.3903 61.5386 41.8164 61.6917C39.2531 62.3994 36.6324 62.7438 33.9925 62.7246C31.2953 62.7055 28.6364 62.3229 26.0539 61.5386C25.8818 61.4812 25.7479 61.4047 25.5183 61.3091Z" fill="#3C50E0"/>
<path d="M59.3578 20.8318C67.0095 35.1022 60.9647 52.2228 47.842 59.1858C48.3777 57.6746 48.8941 56.2591 49.3915 54.8244C52.4522 46.2162 55.5702 37.6081 58.5735 28.9617C59.0709 27.527 59.1857 25.9393 59.3387 24.3898C59.4535 23.1847 59.3578 21.9413 59.3578 20.8318Z" fill="#3C50E0"/>
<path d="M20.5831 59.2238C6.58049 51.5912 2.69727 35.121 7.88128 23.3374C12.128 35.3314 16.3364 47.2106 20.5831 59.2238Z" fill="#3C50E0"/>
<path d="M46.5681 73.3883C47.3961 73.697 48.2051 73.5047 48.8257 73.2368C49.4518 72.9689 50.0931 72.6852 50.7262 72.3975C51.4067 73.2045 52.1778 73.9163 53.007 74.5354C52.8623 74.9109 52.7237 75.287 52.5898 75.6501C52.4855 75.9332 52.384 76.2084 52.2848 76.4695L52.2764 76.4916L52.2687 76.5139C52.0429 77.1697 51.9131 77.9978 52.2888 78.8069C52.6631 79.6133 53.3742 80.0455 54.0117 80.2932C54.9256 80.658 55.8075 80.992 56.7154 81.3244C57.3649 81.573 58.1944 81.7222 59.0135 81.3487C59.8253 80.9785 60.2591 80.2612 60.5058 79.6285C60.7709 78.9666 61.0198 78.3215 61.2636 77.6711C62.3092 77.7481 63.3499 77.722 64.3922 77.581C64.6737 78.2242 64.9643 78.8491 65.2469 79.4566L65.253 79.4697L65.2542 79.4723C65.5414 80.0867 66.0182 80.7719 66.8517 81.0865C67.6841 81.4006 68.4921 81.2016 69.1068 80.9357L69.1069 80.9358L69.1196 80.9301C69.5329 80.7468 69.9527 80.5563 70.3657 80.3689L70.3665 80.3685C70.7818 80.18 71.1903 79.9947 71.5903 79.8172L71.5989 79.8134L71.6074 79.8095C72.2185 79.5292 73.0427 79.0628 73.3978 78.1453C73.7582 77.2141 73.4479 76.314 73.1603 75.6881L72.5295 74.2935L72.3797 73.9624C73.1816 73.2746 73.8938 72.5174 74.529 71.6936C74.7452 71.7739 74.9629 71.8558 75.1841 71.9391L75.1908 71.9416C75.645 72.1125 76.1148 72.2894 76.5944 72.4593C77.1952 72.6746 77.9127 72.761 78.6205 72.4972C79.3559 72.2232 79.8509 71.6568 80.131 71.0139L80.1341 71.0066C80.5946 69.9339 81.0368 68.8031 81.3894 67.6251C81.5769 67.0629 81.4876 66.5379 81.4017 66.2193C81.3064 65.8659 81.1568 65.5548 81.0362 65.3342L81.0291 65.3211L81.0217 65.3082C80.7296 64.7979 80.2603 64.5495 80.084 64.4591C79.9295 64.3799 79.6877 64.2785 79.6036 64.2432C79.5885 64.2368 79.5784 64.2326 79.575 64.2311L79.5605 64.2247L79.5459 64.2186C78.9278 63.9598 78.3 63.715 77.7032 63.4921C77.6782 62.4427 77.6443 61.4175 77.6084 60.3864C77.75 60.3232 77.8937 60.2593 78.0396 60.1945L78.092 60.1712C78.572 59.9578 79.0735 59.7345 79.5698 59.5023C80.198 59.2106 80.8421 58.7226 81.1413 57.9161C81.4381 57.116 81.2725 56.3323 81.0079 55.716C80.6414 54.8623 80.2741 54.0373 79.876 53.1813C79.5946 52.5703 79.1271 51.7498 78.2108 51.3964C77.2809 51.0377 76.3816 51.3463 75.7547 51.6334L74.0032 52.4231C73.3031 51.6252 72.5445 50.9051 71.713 50.2587C71.8217 49.9632 71.934 49.6713 72.0507 49.3681C72.1783 49.0365 72.3112 48.6912 72.4503 48.3124L72.453 48.305L72.4556 48.2976C72.6798 47.667 72.826 46.8485 72.4653 46.0384C72.1023 45.2229 71.3911 44.7844 70.7478 44.5344C69.8301 44.1681 68.9445 43.8328 68.0326 43.499L68.0288 43.4976C67.3968 43.2682 66.5508 43.0901 65.7108 43.4685C64.8709 43.8468 64.442 44.599 64.1933 45.2293L64.1877 45.2437L64.1823 45.2582C64.0939 45.4965 63.9967 45.75 63.8963 46.0121C63.7506 46.3924 63.598 46.7907 63.4552 47.1864C62.5413 47.1681 61.6273 47.1719 60.7134 47.1977C60.5841 47.1985 60.4582 47.2061 60.3388 47.2174C60.2546 47.0291 60.1714 46.8426 60.0884 46.6565C59.8993 46.2323 59.711 45.8099 59.513 45.3722L59.5048 45.3541L59.4961 45.3362C59.1943 44.7134 58.7046 44.0261 57.8694 43.7061C57.0194 43.3806 56.1904 43.5783 55.5412 43.871L55.5244 43.8786L55.5079 43.8865C55.0333 44.1147 54.5817 44.3172 54.1074 44.5299C53.7661 44.6829 53.413 44.8413 53.0311 45.0182C52.4022 45.3045 51.6571 45.7845 51.3304 46.6713C51.0068 47.5495 51.2523 48.4012 51.5316 49.0332L51.5315 49.0332L51.5369 49.0451C51.6721 49.344 51.81 49.6519 51.9493 49.9631C52.0811 50.2578 52.2143 50.5553 52.3478 50.8508C52.0012 51.1623 51.6341 51.4992 51.3335 51.816C50.9708 52.1982 50.5796 52.6813 50.2413 53.101C50.0338 53.0224 49.8248 52.9424 49.6131 52.8614L49.6081 52.8594C49.1617 52.6886 48.7036 52.5133 48.2438 52.3449C47.62 52.1102 46.8175 51.9693 46.0184 52.3227C45.2181 52.6767 44.7753 53.3701 44.5209 54.0052C44.1528 54.9239 43.8161 55.8102 43.4808 56.723L43.4794 56.7268C43.2494 57.3582 43.0703 58.2051 43.4504 59.0461C43.8299 59.8857 44.5836 60.3134 45.2136 60.5612L45.2225 60.5646L45.2314 60.568L47.11 61.2794C47.0321 62.323 47.0721 63.3654 47.2028 64.3964C46.5714 64.6749 45.9619 64.9407 45.3129 65.2075L45.281 65.2206L45.2497 65.2351C44.6459 65.5164 43.9486 65.9878 43.6251 66.8252C43.2978 67.6727 43.5047 68.4992 43.7924 69.136C43.7927 69.1367 43.793 69.1374 43.7933 69.1382L44.9633 71.7436C45.2444 72.3871 45.727 73.0747 46.5681 73.3883ZM51.4007 72.088C51.404 72.0865 51.4073 72.0849 51.4105 72.0834C51.4344 72.0733 51.4292 72.078 51.4007 72.088ZM65.1893 77.4505C65.2036 77.4477 65.1992 77.4497 65.1795 77.4525L65.1893 77.4505ZM64.0313 47.2027C64.043 47.2022 64.0495 47.2024 64.0498 47.2027C64.0501 47.2029 64.0443 47.2032 64.0313 47.2027ZM55.729 62.3243L55.729 62.3237C55.8031 58.6515 58.8436 55.6859 62.46 55.732C66.146 55.8088 69.1064 58.85 69.0604 62.4187C68.9837 66.1148 65.9192 69.0785 62.2747 69.0054C58.6458 68.9315 55.6563 65.8598 55.729 62.3243Z" fill="#AEB6F3" stroke="white" stroke-width="3"/>
</svg>
