<svg width="80" height="81" viewBox="0 0 80 81" fill="none" xmlns="http://www.w3.org/2000/svg">
<g clip-path="url(#clip0_162_49)">
<path d="M38.5031 48.3592C36.776 48.3592 35.0028 48.3592 33.1605 48.3592C33.1605 49.3034 33.1605 50.1785 33.1605 51.1226C35.0489 51.1226 36.8911 51.1226 38.7794 51.1226C38.9637 52.0668 39.1249 52.9188 39.3091 53.886C37.2365 53.886 35.2101 53.886 33.1375 53.886C33.1375 54.8302 33.1375 55.6822 33.1375 56.6724C33.552 56.6724 34.0126 56.6724 34.4501 56.6724C36.1772 56.6724 37.9044 56.6494 39.6315 56.6955C39.9078 56.6955 40.2993 56.9488 40.4375 57.2021C40.852 57.8929 41.1513 58.6298 41.5428 59.4128C38.7103 59.4128 35.97 59.4128 33.1605 59.4128C33.1605 60.3569 33.1605 61.209 33.1605 62.1992C33.4829 62.1992 33.7823 62.1992 34.0817 62.1992C36.9832 62.1992 39.8848 62.1762 42.7863 62.2222C43.1318 62.2222 43.5923 62.3834 43.7996 62.6367C49.3033 68.7622 56.0966 71.3644 64.2717 70.167C64.4098 70.1439 64.548 70.167 64.7553 70.167C64.7553 72.3316 64.8934 74.5423 64.7092 76.707C64.525 78.7335 62.7288 80.1382 60.7023 80.1612C58.837 80.1842 56.9717 80.1842 55.1064 80.1612C52.8497 80.1151 51.0765 78.365 51.0304 76.0852C51.0074 75.2792 51.0304 74.4732 51.0304 73.6672C51.0304 72.3316 50.5699 71.871 49.2112 71.871C39.6775 71.871 30.1439 71.871 20.6102 71.871C17.7316 71.871 14.8761 71.871 11.9976 71.871C11.7213 71.871 11.4449 71.871 11.0535 71.871C11.0535 71.4796 11.0535 71.1802 11.0535 70.8808C11.0535 48.7968 11.0535 26.7358 11.0535 4.6517C11.0535 1.68106 12.7115 0 15.6131 0C32.1703 0 48.7046 0 65.2619 0C65.5152 0 65.7685 0 66.1139 0C65.9988 0.230282 65.9527 0.414508 65.8606 0.552677C65.1467 1.72712 64.8243 3.0167 64.8243 4.42142C64.8243 11.468 64.8243 18.5147 64.8243 25.5843C64.8243 25.9067 64.8243 26.2061 64.8243 26.6206C64.2256 26.5515 63.719 26.4824 63.1893 26.4134C58.7219 25.8837 54.5077 26.7127 50.5238 28.7622C50.1784 28.9465 49.7639 29.0155 49.3724 29.0155C45.3885 29.0386 41.3816 29.0155 37.3287 29.0155C37.3287 29.9136 37.3287 30.7887 37.3287 31.7329C40.1611 31.7329 43.0166 31.7329 46.0794 31.7329C45.1582 32.7231 44.3753 33.6212 43.5463 34.4502C43.4081 34.5884 43.0627 34.5423 42.8094 34.5423C39.6315 34.5423 36.4306 34.5423 33.2066 34.5423C33.2066 35.4634 33.2066 36.3385 33.2066 37.2827C35.97 37.2827 38.7103 37.2827 41.6119 37.2827C41.1744 38.2268 40.8059 39.0789 40.3453 39.8849C40.2532 40.0461 39.8387 40.0691 39.5854 40.0921C37.4898 40.1151 35.3943 40.0921 33.2296 40.0921C33.2296 40.9902 33.2296 41.8653 33.2296 42.8325C35.2331 42.8325 37.2596 42.8325 39.2861 42.8325C38.9867 44.6747 38.7564 46.4479 38.5031 48.3592ZM21.9919 24.8705C24.2026 24.8705 26.4133 24.8705 28.624 24.8705C29.8675 24.8705 30.3511 24.3869 30.3511 23.1434C30.3511 18.768 30.3511 14.3926 30.3511 10.0173C30.3511 8.77375 29.8675 8.29016 28.624 8.29016C24.2486 8.29016 19.8963 8.29016 15.5209 8.29016C14.2774 8.29016 13.7938 8.77375 13.7938 10.0173C13.7938 14.3926 13.7938 18.768 13.7938 23.1434C13.7938 24.3869 14.2774 24.8705 15.5209 24.8705C17.6856 24.8705 19.8502 24.8705 21.9919 24.8705ZM22.107 27.6339C19.8963 27.6339 17.6856 27.6339 15.4749 27.6339C14.3004 27.6339 13.8169 28.1405 13.8169 29.3149C13.8169 33.7133 13.8169 38.1117 13.8169 42.5331C13.8169 43.7075 14.3235 44.2142 15.4979 44.2142C19.8963 44.2142 24.2947 44.2142 28.6931 44.2142C29.8675 44.2142 30.3511 43.7075 30.3741 42.5331C30.3741 38.1347 30.3741 33.7363 30.3741 29.3149C30.3741 28.1405 29.8675 27.6569 28.6931 27.6339C26.4824 27.6339 24.2947 27.6339 22.107 27.6339ZM13.8169 55.2677C13.8169 57.4554 13.8169 59.6431 13.8169 61.8307C13.8169 63.0743 14.3004 63.5579 15.544 63.5579C19.9193 63.5579 24.2717 63.5579 28.647 63.5579C29.8905 63.5579 30.3741 63.0743 30.3741 61.8307C30.3741 57.4554 30.3741 53.08 30.3741 48.7047C30.3741 47.4611 29.8905 46.9775 28.647 46.9775C24.2717 46.9775 19.9193 46.9775 15.544 46.9775C14.3004 46.9775 13.8169 47.4611 13.8169 48.7047C13.7938 50.8923 13.8169 53.08 13.8169 55.2677ZM33.1605 17.9159C42.8324 17.9159 52.4352 17.9159 62.0149 17.9159C62.0149 16.9718 62.0149 16.0967 62.0149 15.2677C52.3661 15.2677 42.7863 15.2677 33.1605 15.2677C33.1605 16.1428 33.1605 16.9948 33.1605 17.9159ZM33.1605 23.4427C42.8324 23.4427 52.4352 23.4427 62.0149 23.4427C62.0149 22.5216 62.0149 21.6465 62.0149 20.7714C52.3661 20.7714 42.7863 20.7714 33.1605 20.7714C33.1605 21.6695 33.1605 22.5216 33.1605 23.4427ZM37.2826 12.3661C45.5958 12.3661 53.8168 12.3661 62.0149 12.3661C62.0149 11.445 62.0149 10.593 62.0149 9.71791C53.7478 9.71791 45.5267 9.71791 37.2826 9.71791C37.2826 10.639 37.2826 11.4911 37.2826 12.3661Z" fill="#AEB6F3"/>
<path d="M41.3819 48.2902C41.4279 37.6512 50.1096 29.0156 60.7486 29.0386C71.4107 29.0616 80.0462 37.8124 80.0002 48.4975C79.9541 59.1365 71.2264 67.7721 60.5874 67.726C49.9714 67.6569 41.3589 58.9292 41.3819 48.2902ZM56.5344 50.547C55.1067 49.1192 53.748 47.7375 52.3663 46.3558C51.3531 45.3426 50.7544 45.3426 49.7411 46.3328C48.5667 47.5072 47.3922 48.6817 46.2178 49.8792C45.2967 50.8233 45.2737 51.4681 46.1948 52.3892C49.2345 55.452 52.2742 58.4917 55.337 61.5545C56.2351 62.4525 56.9029 62.4525 57.778 61.5775C63.6041 55.7513 69.4302 49.9022 75.2564 44.053C76.0854 43.201 76.0854 42.5332 75.2334 41.6811C74.0589 40.4836 72.8845 39.3092 71.71 38.1348C70.6277 37.0524 70.052 37.0524 68.9697 38.1578C65.1009 42.0496 61.2092 45.9413 57.3404 49.8101C57.0871 50.0173 56.8338 50.2476 56.5344 50.547Z" fill="#3C50E0"/>
<path d="M48.1981 74.6804C48.2902 75.6706 48.2671 76.5918 48.4744 77.4899C48.6816 78.3649 49.0962 79.194 49.4646 80.1611C49.1883 80.1611 48.8659 80.1611 48.5435 80.1611C34.0357 80.1611 19.5279 80.1151 5.02017 80.2072C1.98045 80.2302 -0.437512 78.3649 0.0691083 74.7034C16.0967 74.6804 32.1474 74.6804 48.1981 74.6804Z" fill="#AEB6F3"/>
<path d="M79.9999 5.50364C75.8549 5.50364 71.7789 5.50364 67.7259 5.50364C66.966 2.67117 68.9234 0.0459583 71.8249 0.0229301C73.0915 -9.81316e-05 74.358 0.0229301 75.6015 0.0229301C78.2268 0.0459583 79.9769 1.77307 79.9769 4.37526C79.9999 4.72068 79.9999 5.06611 79.9999 5.50364Z" fill="#AEB6F3"/>
<path d="M16.6033 22.061C16.6033 18.3764 16.6033 14.761 16.6033 11.1226C20.2417 11.1226 23.8572 11.1226 27.5186 11.1226C27.5186 14.738 27.5186 18.3764 27.5186 22.061C23.9262 22.061 20.2878 22.061 16.6033 22.061Z" fill="#FF5670"/>
<path d="M16.6265 30.4434C20.288 30.4434 23.9034 30.4434 27.5418 30.4434C27.5418 34.1048 27.5418 37.6973 27.5418 41.3818C23.9264 41.3818 20.311 41.3818 16.6265 41.3818C16.6265 37.7663 16.6265 34.1509 16.6265 30.4434Z" fill="#FF5670"/>
<path d="M16.6033 60.7485C16.6033 57.087 16.6033 53.4715 16.6033 49.8101C20.2417 49.8101 23.8572 49.8101 27.5186 49.8101C27.5186 53.4255 27.5186 57.0639 27.5186 60.7485C23.9262 60.7485 20.2878 60.7485 16.6033 60.7485Z" fill="#FF5670"/>
<path d="M56.4651 58.5838C54.0472 56.1428 51.5371 53.6328 48.981 51.0766C49.6488 50.4549 50.3857 49.8101 51.1917 49.0732C51.5831 49.4647 52.0898 49.9713 52.6194 50.5009C53.4945 51.376 54.3696 52.2511 55.2446 53.1261C56.2579 54.1394 56.8566 54.1394 57.8698 53.1492C61.7846 49.2344 65.7224 45.2966 69.6372 41.3587C69.8675 41.1285 70.0748 40.9212 70.3281 40.6909C71.0189 41.4278 71.6867 42.1417 72.2625 42.7635C67.0351 47.9909 61.7386 53.2873 56.4651 58.5838Z" fill="#AEB6F3"/>
</g>
<defs>
<clipPath id="clip0_162_49">
<rect width="80" height="80.1842" fill="white"/>
</clipPath>
</defs>
</svg>
