<svg width="76" height="79" viewBox="0 0 76 79" fill="none" xmlns="http://www.w3.org/2000/svg">
<path d="M59.2 0H4.8C3.52696 0 2.30606 0.505712 1.40589 1.40589C0.505713 2.30606 0 3.52696 0 4.8L0 63.2C0 64.473 0.505713 65.6939 1.40589 66.5941C2.30606 67.4943 3.52696 68 4.8 68H59.2C60.473 68 61.6939 67.4943 62.5941 66.5941C63.4943 65.6939 64 64.473 64 63.2V4.8C64 3.52696 63.4943 2.30606 62.5941 1.40589C61.6939 0.505712 60.473 0 59.2 0Z" fill="#3C50E0"/>
<path opacity="0.2" d="M60.8 0H43.2C40.9908 0 39.2 1.79086 39.2 4V56.8C39.2 59.0091 40.9908 60.8 43.2 60.8H60.8C63.0091 60.8 64.8 59.0091 64.8 56.8V4C64.8 1.79086 63.0091 0 60.8 0Z" fill="black"/>
<path d="M60.7999 62.4001C60.7999 63.0366 60.5471 63.6471 60.097 64.0972C59.6469 64.5472 59.0365 64.8001 58.3999 64.8001H5.59995C4.96343 64.8001 4.35298 64.5472 3.90289 64.0972C3.45281 63.6471 3.19995 63.0366 3.19995 62.4001V13.6001H60.7999V62.4001Z" fill="white"/>
<path d="M7.20005 9.60005C8.52553 9.60005 9.60005 8.52553 9.60005 7.20005C9.60005 5.87457 8.52553 4.80005 7.20005 4.80005C5.87457 4.80005 4.80005 5.87457 4.80005 7.20005C4.80005 8.52553 5.87457 9.60005 7.20005 9.60005Z" fill="#E8F1FF"/>
<path d="M13.6 9.60005C14.9254 9.60005 16 8.52553 16 7.20005C16 5.87457 14.9254 4.80005 13.6 4.80005C12.2745 4.80005 11.2 5.87457 11.2 7.20005C11.2 8.52553 12.2745 9.60005 13.6 9.60005Z" fill="#E8F1FF"/>
<path d="M20.0001 9.60005C21.3256 9.60005 22.4001 8.52553 22.4001 7.20005C22.4001 5.87457 21.3256 4.80005 20.0001 4.80005C18.6746 4.80005 17.6001 5.87457 17.6001 7.20005C17.6001 8.52553 18.6746 9.60005 20.0001 9.60005Z" fill="#E8F1FF"/>
<path fill-rule="evenodd" clip-rule="evenodd" d="M6.3999 16.8H57.5999V61.6H6.3999V16.8Z" fill="#E8F1FF"/>
<path fill-rule="evenodd" clip-rule="evenodd" d="M27.2 16.8H57.6V61.6H27.2V16.8Z" fill="#E0E3F2"/>
<path d="M50 28.625C36.5938 28.625 25.625 39.5938 25.625 53C25.625 66.4062 36.5938 77.375 50 77.375C63.4062 77.375 74.375 66.4062 74.375 53C74.375 39.5938 63.4062 28.625 50 28.625ZM66.25 66.1625C65.275 65.2687 64.2188 64.4562 63.1625 63.8062C64.5438 61.0438 65.3563 58.0375 65.6 54.95H70.8C70.475 59.175 68.85 63.075 66.25 66.1625ZM29.1188 54.95H34.2375C34.4813 58.0375 35.375 61.0438 36.675 63.8062C35.6188 64.5375 34.6438 65.2687 33.6687 66.1625C31.15 63.075 29.525 59.175 29.1188 54.95ZM33.75 39.8375C34.725 40.7312 35.7 41.4625 36.7562 42.1938C35.2937 45.1187 34.4813 48.2875 34.2375 51.5375H29.1188C29.3625 47.15 31.0687 43.0875 33.75 39.8375ZM48.2937 34.8V42.6C45.9375 42.4375 43.6625 41.7875 41.4688 40.8938C43.2563 38.375 45.6125 36.2625 48.2937 34.8ZM48.2937 46.0125V51.5375H37.65C37.8125 48.775 38.5437 46.175 39.7625 43.8188C42.3625 45.1188 45.2875 45.85 48.2937 46.0125ZM48.2937 54.95V59.9875C45.2875 60.2312 42.3625 60.9625 39.6812 62.1812C38.625 59.9875 37.8937 57.55 37.65 54.95H48.2937ZM48.2937 63.4V71.2812C45.5312 69.7375 43.2563 67.7062 41.4688 65.1875C43.5812 64.2125 45.9375 63.5625 48.2937 63.4ZM51.7062 71.2V63.4C54.0625 63.5625 56.3375 64.1313 58.45 65.1063C56.6625 67.5438 54.3875 69.6562 51.7062 71.2ZM51.7062 59.9875V54.95H62.1875C61.9437 57.4688 61.2125 59.9062 60.1562 62.1C57.5562 60.8813 54.7125 60.15 51.7062 59.9875ZM51.7062 51.5375V46.0125C54.7125 45.85 57.5562 45.0375 60.2375 43.8188C61.375 46.175 62.1062 48.775 62.2687 51.4563H51.7062V51.5375ZM51.7062 42.6V34.8C54.3875 36.3438 56.6625 38.375 58.45 40.8938C56.3375 41.8688 54.0625 42.4375 51.7062 42.6ZM60.1562 37.5625C58.5312 35.6125 56.6625 33.9062 54.55 32.6063C58.125 33.4188 61.2937 35.0438 63.8937 37.4C63.0812 38.1313 62.2687 38.7 61.4562 39.2688C61.05 38.7 60.6437 38.05 60.1562 37.5625ZM39.7625 37.5625C39.3562 38.1313 38.8687 38.7 38.4625 39.2688C37.65 38.7 36.8375 38.1313 36.1062 37.4C38.7063 35.125 41.875 33.4188 45.3687 32.6063C43.175 33.9062 41.3062 35.6125 39.7625 37.5625ZM38.4625 66.8125C38.7875 67.3 39.1125 67.7875 39.5188 68.1938C41.1438 70.225 43.0938 72.0125 45.2875 73.3937C41.7938 72.5812 38.625 70.9562 36.025 68.6C36.8375 67.95 37.65 67.3812 38.4625 66.8125ZM60.2375 68.4375C60.6437 67.8688 61.1313 67.3 61.5375 66.7313C62.4313 67.3 63.2438 67.95 63.975 68.6C61.375 70.9562 58.125 72.5812 54.6313 73.3937C56.6625 72.0938 58.6125 70.3875 60.2375 68.4375ZM65.6812 51.5375C65.5187 48.2875 64.625 45.1187 63.1625 42.1938C64.2188 41.4625 65.275 40.7312 66.25 39.8375C68.85 43.0875 70.5563 47.15 70.8813 51.5375H65.6812Z" fill="#FF5670"/>
</svg>
