<svg width="80" height="70" viewBox="0 0 80 70" fill="none" xmlns="http://www.w3.org/2000/svg">
<path d="M33.3335 64.8887C50.5157 64.8887 64.4446 50.9598 64.4446 33.7776C64.4446 16.5954 50.5157 2.6665 33.3335 2.6665C16.1513 2.6665 2.22241 16.5954 2.22241 33.7776C2.22241 50.9598 16.1513 64.8887 33.3335 64.8887Z" fill="white"/>
<path d="M33.3333 4.88902C49.2889 4.88902 62.2222 17.8224 62.2222 33.7779C62.2222 49.7335 49.2889 62.6668 33.3333 62.6668C17.3778 62.6668 4.44445 49.7335 4.44445 33.7779C4.44445 17.8224 17.3778 4.88902 33.3333 4.88902ZM33.3333 0.44458C14.9533 0.44458 0 15.3979 0 33.7779C0 52.1579 14.9533 67.1113 33.3333 67.1113C51.7133 67.1113 66.6667 52.1579 66.6667 33.7779C66.6667 15.3979 51.7133 0.44458 33.3333 0.44458Z" fill="#3C50E0"/>
<path d="M35.5559 9.33331C35.5559 8.74394 35.3218 8.17871 34.905 7.76196C34.4883 7.34521 33.923 7.11108 33.3337 7.11108C32.7443 7.11108 32.1791 7.34521 31.7623 7.76196C31.3456 8.17871 31.1114 8.74394 31.1114 9.33331V11.5555C31.1114 12.1449 31.3456 12.7101 31.7623 13.1269C32.1791 13.5436 32.7443 13.7778 33.3337 13.7778C33.923 13.7778 34.4883 13.5436 34.905 13.1269C35.3218 12.7101 35.5559 12.1449 35.5559 11.5555V9.33331ZM35.5559 56C35.5559 55.4106 35.3218 54.8454 34.905 54.4286C34.4883 54.0119 33.923 53.7778 33.3337 53.7778C32.7443 53.7778 32.1791 54.0119 31.7623 54.4286C31.3456 54.8454 31.1114 55.4106 31.1114 56V58.2222C31.1114 58.8116 31.3456 59.3768 31.7623 59.7935C32.1791 60.2103 32.7443 60.4444 33.3337 60.4444C33.923 60.4444 34.4883 60.2103 34.905 59.7935C35.3218 59.3768 35.5559 58.8116 35.5559 58.2222V56ZM11.1114 31.5555H8.88921C8.29984 31.5555 7.73461 31.7897 7.31787 32.2064C6.90112 32.6231 6.66699 33.1884 6.66699 33.7778C6.66699 34.3671 6.90112 34.9324 7.31787 35.3491C7.73461 35.7659 8.29984 36 8.88921 36H11.1114C11.7008 36 12.266 35.7659 12.6828 35.3491C13.0995 34.9324 13.3337 34.3671 13.3337 33.7778C13.3337 33.1884 13.0995 32.6231 12.6828 32.2064C12.266 31.7897 11.7008 31.5555 11.1114 31.5555ZM57.7781 31.5555H55.5559C54.9665 31.5555 54.4013 31.7897 53.9845 32.2064C53.5678 32.6231 53.3337 33.1884 53.3337 33.7778C53.3337 34.3671 53.5678 34.9324 53.9845 35.3491C54.4013 35.7659 54.9665 36 55.5559 36H57.7781C58.3675 36 58.9327 35.7659 59.3494 35.3491C59.7662 34.9324 60.0003 34.3671 60.0003 33.7778C60.0003 33.1884 59.7662 32.6231 59.3494 32.2064C58.9327 31.7897 58.3675 31.5555 57.7781 31.5555ZM52.6825 49.9844L51.1114 48.4133C50.9051 48.207 50.6602 48.0433 50.3906 47.9317C50.121 47.82 49.8321 47.7625 49.5403 47.7625C49.2485 47.7625 48.9596 47.82 48.69 47.9317C48.4205 48.0433 48.1755 48.207 47.9692 48.4133C47.7629 48.6196 47.5992 48.8646 47.4876 49.1341C47.3759 49.4037 47.3184 49.6926 47.3184 49.9844C47.3184 50.2762 47.3759 50.5651 47.4876 50.8347C47.5992 51.1043 47.7629 51.3492 47.9692 51.5555L49.5403 53.1266C49.957 53.5433 50.5222 53.7774 51.1114 53.7774C51.7007 53.7774 52.2659 53.5433 52.6825 53.1266C53.0992 52.71 53.3333 52.1448 53.3333 51.5555C53.3333 50.9663 53.0992 50.4011 52.6825 49.9844ZM15.5559 48.4133L13.9848 49.9844C13.5681 50.4011 13.334 50.9663 13.334 51.5555C13.334 52.1448 13.5681 52.71 13.9848 53.1266C14.4015 53.5433 14.9666 53.7774 15.5559 53.7774C16.1452 53.7774 16.7103 53.5433 17.127 53.1266L18.6981 51.5555C18.9044 51.3492 19.0681 51.1043 19.1797 50.8347C19.2914 50.5651 19.3489 50.2762 19.3489 49.9844C19.3489 49.6926 19.2914 49.4037 19.1797 49.1341C19.0681 48.8646 18.9044 48.6196 18.6981 48.4133C18.4918 48.207 18.2468 48.0433 17.9773 47.9317C17.7077 47.82 17.4188 47.7625 17.127 47.7625C16.8352 47.7625 16.5463 47.82 16.2767 47.9317C16.0071 48.0433 15.7622 48.207 15.5559 48.4133ZM13.9848 17.5711L15.5559 19.1422C15.7622 19.3485 16.0071 19.5122 16.2767 19.6238C16.5463 19.7355 16.8352 19.793 17.127 19.793C17.4188 19.793 17.7077 19.7355 17.9773 19.6238C18.2468 19.5122 18.4918 19.3485 18.6981 19.1422C18.9044 18.9359 19.0681 18.6909 19.1797 18.4214C19.2914 18.1518 19.3489 17.8629 19.3489 17.5711C19.3489 17.2793 19.2914 16.9904 19.1797 16.7208C19.0681 16.4512 18.9044 16.2063 18.6981 16L17.127 14.4289C16.7103 14.0122 16.1452 13.7781 15.5559 13.7781C14.9666 13.7781 14.4015 14.0122 13.9848 14.4289C13.5681 14.8455 13.334 15.4107 13.334 16C13.334 16.5893 13.5681 17.1544 13.9848 17.5711ZM51.1114 19.1422L52.6825 17.5711C53.0992 17.1544 53.3333 16.5893 53.3333 16C53.3333 15.4107 53.0992 14.8455 52.6825 14.4289C52.2659 14.0122 51.7007 13.7781 51.1114 13.7781C50.5222 13.7781 49.957 14.0122 49.5403 14.4289L47.9692 16C47.7629 16.2063 47.5992 16.4512 47.4876 16.7208C47.3759 16.9904 47.3184 17.2793 47.3184 17.5711C47.3184 17.8629 47.3759 18.1518 47.4876 18.4214C47.5992 18.6909 47.7629 18.9359 47.9692 19.1422C48.1755 19.3485 48.4205 19.5122 48.69 19.6238C48.9596 19.7355 49.2485 19.793 49.5403 19.793C49.8321 19.793 50.121 19.7355 50.3906 19.6238C50.6602 19.5122 50.9051 19.3485 51.1114 19.1422Z" fill="#FF5670"/>
<path d="M13.1447 26.7532C12.9822 26.3448 12.9445 25.8973 13.0363 25.4675C13.1282 25.0376 13.3454 24.6446 13.6606 24.3383C13.9758 24.0319 14.3747 23.8258 14.807 23.7462C15.2393 23.6666 15.6855 23.717 16.0892 23.891L34.2092 31.691C34.7505 31.9241 35.1771 32.3627 35.395 32.9103C35.613 33.4579 35.6045 34.0696 35.3714 34.611C35.1383 35.1523 34.6997 35.5789 34.1521 35.7968C33.6045 36.0148 32.9927 36.0063 32.4514 35.7732L14.3314 27.9732C14.0631 27.8578 13.8203 27.6906 13.6166 27.4813C13.413 27.272 13.2527 27.0246 13.1447 26.7532Z" fill="#FF5670"/>
<path d="M80 56.3333C80 56.3333 73.2667 69.6667 60 69.6667C46.7333 69.6667 40 56.3333 40 56.3333C40 56.3333 46.7333 43 60 43C73.2667 43 80 56.3333 80 56.3333Z" fill="#AEB6F3"/>
<path d="M76.6666 56.3335C76.6666 56.3335 71.0666 67.4669 59.9999 67.4669C48.9333 67.4669 43.3333 56.3335 43.3333 56.3335C43.3333 56.3335 48.9333 45.2002 59.9999 45.2002C71.0666 45.2002 76.6666 56.3335 76.6666 56.3335Z" fill="white"/>
<path d="M68.9334 56.3333C68.9334 61.3333 64.9333 65.3333 59.9333 65.3333C54.9333 65.3333 50.9333 61.3333 50.9333 56.3333C50.9333 51.3333 54.9333 47.3333 59.9333 47.3333C64.9333 47.3333 68.9334 51.3333 68.9334 56.3333Z" fill="#3C50E0"/>
<path d="M59.3334 56.3333C59.3334 57.0622 58.729 57.6667 58.0001 57.6667C57.2712 57.6667 56.6667 57.0622 56.6667 56.3333C56.6667 55.6044 57.2712 55 58.0001 55C58.729 55 59.3334 55.6044 59.3334 56.3333Z" fill="#E0E3F2"/>
<path d="M62.6667 56.3333C62.6667 57.0622 62.0622 57.6667 61.3333 57.6667C60.6044 57.6667 60 57.0622 60 56.3333C60 55.6044 60.6044 55 61.3333 55C62.0622 55 62.6667 55.6044 62.6667 56.3333Z" fill="#E0E3F2"/>
</svg>
