<svg width="80" height="80" viewBox="0 0 80 80" fill="none" xmlns="http://www.w3.org/2000/svg">
<g clip-path="url(#clip0_118_984)">
<path d="M59.2 12H4.8C3.52696 12 2.30606 12.5057 1.40589 13.4059C0.505713 14.3061 0 15.527 0 16.8L0 75.2C0 76.473 0.505713 77.6939 1.40589 78.5941C2.30606 79.4943 3.52696 80 4.8 80H59.2C60.473 80 61.6939 79.4943 62.5941 78.5941C63.4943 77.6939 64 76.473 64 75.2V16.8C64 15.527 63.4943 14.3061 62.5941 13.4059C61.6939 12.5057 60.473 12 59.2 12Z" fill="#3C50E0"/>
<path opacity="0.2" d="M60.8 12H43.2C40.9908 12 39.2 13.7909 39.2 16V68.8C39.2 71.0091 40.9908 72.8 43.2 72.8H60.8C63.0091 72.8 64.8 71.0091 64.8 68.8V16C64.8 13.7909 63.0091 12 60.8 12Z" fill="black"/>
<path d="M60.7999 74.4001C60.7999 75.0366 60.5471 75.6471 60.097 76.0972C59.6469 76.5472 59.0365 76.8001 58.3999 76.8001H5.59995C4.96343 76.8001 4.35298 76.5472 3.90289 76.0972C3.45281 75.6471 3.19995 75.0366 3.19995 74.4001V25.6001H60.7999V74.4001Z" fill="white"/>
<path d="M7.20005 21.6C8.52553 21.6 9.60005 20.5255 9.60005 19.2C9.60005 17.8746 8.52553 16.8 7.20005 16.8C5.87457 16.8 4.80005 17.8746 4.80005 19.2C4.80005 20.5255 5.87457 21.6 7.20005 21.6Z" fill="#E8F1FF"/>
<path d="M13.6 21.6C14.9254 21.6 16 20.5255 16 19.2C16 17.8746 14.9254 16.8 13.6 16.8C12.2745 16.8 11.2 17.8746 11.2 19.2C11.2 20.5255 12.2745 21.6 13.6 21.6Z" fill="#E8F1FF"/>
<path d="M20.0001 21.6C21.3256 21.6 22.4001 20.5255 22.4001 19.2C22.4001 17.8746 21.3256 16.8 20.0001 16.8C18.6746 16.8 17.6001 17.8746 17.6001 19.2C17.6001 20.5255 18.6746 21.6 20.0001 21.6Z" fill="#E8F1FF"/>
<path fill-rule="evenodd" clip-rule="evenodd" d="M6.3999 28.8H57.5999V73.6H6.3999V28.8Z" fill="#E8F1FF"/>
<path fill-rule="evenodd" clip-rule="evenodd" d="M27.2 28.8H57.6V73.6H27.2V28.8Z" fill="#E0E3F2"/>
<path fill-rule="evenodd" clip-rule="evenodd" d="M75.2001 0H46.4001C45.1271 0 43.9062 0.505713 43.006 1.40589C42.1058 2.30606 41.6001 3.52696 41.6001 4.8V65.6008C41.6005 66.8736 42.1064 68.094 43.0066 68.9939C43.9067 69.8937 45.1273 70.3992 46.4001 70.3992H75.2001C76.4729 70.3992 77.6935 69.8937 78.5936 68.9939C79.4938 68.094 79.9997 66.8736 80.0001 65.6008V4.8C80.0001 3.52696 79.4944 2.30606 78.5942 1.40589C77.694 0.505713 76.4731 0 75.2001 0V0ZM76.8001 59.2H44.8001V11.2H76.8001V59.2Z" fill="#FF5670"/>
<path fill-rule="evenodd" clip-rule="evenodd" d="M44.8 11.2H76.8V59.2H44.8V11.2Z" fill="white"/>
<path fill-rule="evenodd" clip-rule="evenodd" d="M47.2002 13.6001H74.4002V56.8001H47.2002V13.6001Z" fill="#E8F1FF"/>
<path fill-rule="evenodd" clip-rule="evenodd" d="M47.2002 35.2H74.4002V56.7999H47.2002V35.2Z" fill="#E0E3F2"/>
<path fill-rule="evenodd" clip-rule="evenodd" d="M55.6001 4.80005H65.2001C65.5184 4.80005 65.8236 4.92648 66.0487 5.15152C66.2737 5.37656 66.4001 5.68179 66.4001 6.00005C66.4001 6.31831 66.2737 6.62353 66.0487 6.84858C65.8236 7.07362 65.5184 7.20005 65.2001 7.20005H55.6001C55.2819 7.20005 54.9767 7.07362 54.7516 6.84858C54.5266 6.62353 54.4001 6.31831 54.4001 6.00005C54.4001 5.68179 54.5266 5.37656 54.7516 5.15152C54.9767 4.92648 55.2819 4.80005 55.6001 4.80005ZM60.8001 62.4008C61.4365 62.4008 62.0467 62.6536 62.4966 63.1036C62.9466 63.5535 63.1993 64.1637 63.1993 64.8C63.1993 65.4364 62.9466 66.0466 62.4966 66.4965C62.0467 66.9465 61.4365 67.1992 60.8001 67.1992C60.4799 67.2075 60.1612 67.1516 59.8629 67.0347C59.5645 66.9179 59.2926 66.7425 59.0632 66.5189C58.8337 66.2953 58.6514 66.028 58.5268 65.7328C58.4023 65.4376 58.3382 65.1204 58.3382 64.8C58.3382 64.4797 58.4023 64.1625 58.5268 63.8673C58.6514 63.5721 58.8337 63.3048 59.0632 63.0812C59.2926 62.8576 59.5645 62.6822 59.8629 62.5654C60.1612 62.4485 60.4799 62.3926 60.8001 62.4008Z" fill="#E8F1FF"/>
</g>
<defs>
<clipPath id="clip0_118_984">
<rect width="80" height="80" fill="white"/>
</clipPath>
</defs>
</svg>
