<svg id="Layer_1" data-name="Layer 1" xmlns="http://www.w3.org/2000/svg" viewBox="0 0 128.4 38.74"><defs><style>.cls-1{fill:#7b86a3;}</style></defs><title>WP Mayor</title><path class="cls-1" d="M9.14,38.46A7.29,7.29,0,0,1,6.35,37a10.89,10.89,0,0,1-1.14-1.4c-.3-.43-.07-.85.45-.93.36,0,.72,0,1.06-.12A4.76,4.76,0,0,0,10,32.08,3.72,3.72,0,0,1,15.61,31l.29.23s0,0,.08,0a11.19,11.19,0,0,1,1.12-.72A3.68,3.68,0,0,1,21.93,32a4.72,4.72,0,0,0,1.62,1.81,8.44,8.44,0,0,0,1.6.7.93.93,0,0,0,1.28-.65,5.75,5.75,0,0,0-.9-5.77,9.85,9.85,0,0,0-.71-.78,4.13,4.13,0,0,1-3.21,1.47,3.92,3.92,0,0,1-2.49-.88c-1.63-1.29-1.94-3.11-.91-5.47l-.64-.06A31.1,31.1,0,0,0,6,23.75,3.17,3.17,0,0,1,2.45,23,7,7,0,0,1,.11,19.45,3.07,3.07,0,0,1,4,15.63a6,6,0,0,1,2,.86,7.3,7.3,0,0,0,3.9,1.18,39.35,39.35,0,0,0,5.32-.11,32.17,32.17,0,0,0,4.06-.93l5.07-1.17c-.93-.17-1.74-.34-2.55-.45a40.54,40.54,0,0,0-11.38,0q-1,.13-1.92.33a2.1,2.1,0,0,1-2.68-1.61c-.62-2.26-1.31-4.51-1.84-6.8S4,3,6.19,2.05c.37-.15.73-.33,1.11-.47a24.84,24.84,0,0,1,18.13.27l.5.23C28.31,3,28.63,5,28.16,6.89,27.49,9.61,26.71,12.29,26,15l-.12.48c.65.23,1.3.43,1.92.67a5.84,5.84,0,0,1,3.94,4.16,4.6,4.6,0,0,1,0,1.92,2.66,2.66,0,0,1-3.44,2.1,10,10,0,0,1-1.62-.55c-.34-.12-.68-.26-1.09-.42,0,.19,0,.29.05.39A4,4,0,0,1,25.54,26a.43.43,0,0,0,.15.55A7,7,0,0,1,24.23,38a6.94,6.94,0,0,0-1.34.33c-1.24,0-2.28.11-3.52.11a7.82,7.82,0,0,1-3.33-2s-.06,0-.09,0a6.23,6.23,0,0,1-1,.62c-.75.47-1.53.82-2.31,1.26-.65,0-1.21.24-1.85.24S9.73,38.46,9.14,38.46Zm9.57-13.78a3,3,0,0,0,1.9,2.71,2.88,2.88,0,0,0,3.18-.74,2.82,2.82,0,0,0,.45-3.22.82.82,0,0,0-.5-.38c-1-.18-2.11-.33-3.16-.45s-1.23.08-1.59,1A8.19,8.19,0,0,0,18.71,24.68Z"/><path class="cls-1" d="M128.4,19.64a6,6,0,0,0-.91-.15,1.64,1.64,0,0,0-1.71,1.7c0,1.51,0,3,0,4.54,0,.45-.11.59-.56.57-.71,0-1.42,0-2.16,0V16.85c.61,0,1.22,0,1.83,0,.1,0,.21.15.27.25s.2.45.31.71l.47-.41a3.08,3.08,0,0,1,2.48-.64Z"/><path class="cls-1" d="M75.87,13.34c.81,0,1.6,0,2.39,0a.58.58,0,0,1,.37.3c1.09,2.32,2.16,4.65,3.23,7l.88,1.87,1.64-3.56c.82-1.76,1.63-3.53,2.45-5.29a.61.61,0,0,1,.39-.3c.78,0,1.57,0,2.39,0V26.26H86.69V20l-.09,0a2.29,2.29,0,0,0-.18.29c-.84,1.82-1.69,3.63-2.51,5.47-.18.41-.42.5-.86.56a1.47,1.47,0,0,1-1.76-1.12c-.67-1.67-1.49-3.28-2.25-4.92a.49.49,0,0,0-.22-.26v6.24H75.87Z"/><path class="cls-1" d="M40.72,13.34c.88,0,1.71,0,2.54,0,.33,0,.33.23.39.42.73,2.34,1.45,4.69,2.17,7,0,.14.1.27.2.55.27-.88.51-1.62.74-2.37.53-1.74,1.07-3.48,1.6-5.22.09-.29.2-.44.54-.41s.92,0,1.43,0C51.14,16,52,18.6,52.77,21.23h.09l2.44-7.88h2.85c-.34,1.09-.67,2.14-1,3.2-1,3.1-2,6.2-3,9.31-.11.34-.26.46-.61.44-.59,0-1.18,0-1.78,0l-2.39-7.64c-.52,1.65-1,3.16-1.46,4.68-.28.88-.56,1.76-.82,2.65a.37.37,0,0,1-.42.32c-.54,0-1.09,0-1.63,0A.52.52,0,0,1,44.7,26q-2-6.22-4-12.47A1.14,1.14,0,0,1,40.72,13.34Z"/><path class="cls-1" d="M62.51,22.14v4.11H59.57V13.38a2,2,0,0,1,.35,0c1.61,0,3.22,0,4.82,0A4.3,4.3,0,0,1,68.83,16a4.18,4.18,0,0,1-.75,4.7,4.1,4.1,0,0,1-3,1.45C64.25,22.18,63.41,22.14,62.51,22.14Zm0-2.85c.78,0,1.51,0,2.23,0a1.56,1.56,0,0,0,1.48-1.46,1.58,1.58,0,0,0-1.35-1.59c-.77-.07-1.56,0-2.36,0Z"/><path class="cls-1" d="M111.65,21.54a4.84,4.84,0,1,1,4.81,4.95A4.83,4.83,0,0,1,111.65,21.54Zm6.95.13c-.06-.39-.09-.68-.16-1a2.06,2.06,0,0,0-1.78-1.53,2,2,0,0,0-2,1.11,2.81,2.81,0,0,0,0,2.51,1.94,1.94,0,0,0,1.87,1.14,1.86,1.86,0,0,0,1.75-1.16A6.68,6.68,0,0,0,118.6,21.67Z"/><path class="cls-1" d="M97.13,20.57a1.24,1.24,0,0,0-2.29-.87.51.51,0,0,1-.59.28L92,19.79A3.43,3.43,0,0,1,93,17.66c1.3-1.24,4.35-1.57,5.91.16a3.94,3.94,0,0,1,1,2.29,4.35,4.35,0,0,1,0,.51c0,1.87,0,3.73,0,5.67H98c-.08,0-.18-.15-.24-.24s-.19-.41-.25-.52a13.89,13.89,0,0,1-2.32.8,4.87,4.87,0,0,1-2-.17,2.36,2.36,0,0,1-1.7-2.2,2.57,2.57,0,0,1,1.63-2.74,7.79,7.79,0,0,1,3-.63C96.47,20.56,96.8,20.57,97.13,20.57Zm0,1.6a5.66,5.66,0,0,0-2.3.35.9.9,0,0,0-.53,1,.86.86,0,0,0,.76.76A1.72,1.72,0,0,0,97.13,22.17Z"/><path class="cls-1" d="M111,16.84l-.42,1.06c-1.21,3-2.41,6-3.64,9a8.1,8.1,0,0,1-.71,1.29,3.12,3.12,0,0,1-3.3,1.49c-.12,0-.32-.17-.32-.27,0-.69,0-1.39,0-2.11a2,2,0,0,0,1.67-.8.93.93,0,0,0,.13-1c-1.1-2.7-2.17-5.41-3.25-8.12-.06-.14-.1-.29-.18-.51,1,0,1.88,0,2.8,0,.1,0,.24.25.29.41.57,1.59,1.13,3.2,1.69,4.8.06.17.13.34.24.62l1-2.83c.31-.89.63-1.77.93-2.67a.45.45,0,0,1,.53-.36C109.25,16.86,110.08,16.84,111,16.84Z"/><path class="cls-1" d="M11,24.46c.25-.85.71-1,1.35-.37a3.61,3.61,0,0,1,.74,1.14.75.75,0,0,1-.14.7.89.89,0,0,1-.75.05,4.25,4.25,0,0,0-2.67-.32c-.29.07-.54.27-.83.37a3.15,3.15,0,0,1-.61.13c0-.22,0-.5.18-.64a3.15,3.15,0,0,1,1.91-.95C10.43,24.52,10.71,24.5,11,24.46Z"/><path class="cls-1" d="M25.42,34.66a1.67,1.67,0,0,1-1.09-.33l-.06,0a34.06,34.06,0,0,1-18.34.46,2.63,2.63,0,0,0-.68.36,5.62,5.62,0,0,0,3.88,3.42,6.77,6.77,0,0,0,6.8-2l1,.76a6.7,6.7,0,0,0,8.93-.45,6.5,6.5,0,0,0,1-1.34A11.35,11.35,0,0,1,25.42,34.66Z"/></svg>